<svg width="237" height="204" viewBox="0 0 237 204" fill="none" xmlns="http://www.w3.org/2000/svg">
<g style="mix-blend-mode:luminosity" filter="url(#filter0_d_1_593)">
<path d="M151.205 70.0343C119.325 47.8843 80.3152 39.5343 64.0852 51.3943C47.8452 63.2443 60.5352 90.8143 92.4152 112.964C124.295 135.114 163.305 143.464 179.535 131.604C195.765 119.744 183.085 92.1843 151.205 70.0343Z" fill="url(#paint0_linear_1_593)"/>
<path opacity="0.7" d="M151.205 70.0343C119.325 47.8843 80.3152 39.5343 64.0852 51.3943C47.8452 63.2443 60.5352 90.8143 92.4152 112.964C124.295 135.114 163.305 143.464 179.535 131.604C195.765 119.744 183.085 92.1843 151.205 70.0343ZM92.7252 112.614C81.8052 105.034 72.7652 96.5144 66.5652 87.9743C55.3852 72.5744 54.6252 59.0643 64.5352 51.8243C80.5752 40.1143 119.305 48.4443 150.885 70.3743C161.805 77.9643 170.845 86.4743 177.045 95.0143C188.225 110.414 188.985 123.924 179.075 131.164C163.045 142.874 124.305 134.554 92.7252 112.614Z" fill="url(#paint1_linear_1_593)"/>
<path d="M133.717 82.6548L130.927 76.6248L139.447 78.4648L142.237 84.4748L133.717 82.6548ZM101.007 98.4748L103.807 104.495L112.317 106.335L109.537 100.315L101.007 98.4748ZM172.737 126.995C158.467 137.415 123.927 129.975 95.7367 110.385C67.5467 90.8048 56.2267 66.3848 70.5067 55.9648C84.7767 45.5448 119.327 52.9948 147.517 72.5848C175.697 92.1648 187.017 116.575 172.737 126.995ZM168.097 123.765C181.077 114.295 170.787 92.1048 145.167 74.3048C119.547 56.5048 88.1367 49.7248 75.1567 59.1948C62.1767 68.6648 72.4767 90.8648 98.0967 108.675C123.717 126.475 155.117 133.245 168.097 123.765ZM157.797 113.695C157.537 113.465 153.147 110.515 151.097 109.145C155.327 105.435 152.347 99.3348 145.277 94.4248C134.647 87.0348 127.607 86.7648 120.767 86.7848C116.057 86.7348 112.307 87.5648 108.077 84.6148C105.847 83.0648 105.637 81.5248 106.727 80.7248C107.927 79.8448 112.157 80.5748 117.887 83.5948C118.107 83.5048 118.397 83.3348 118.727 83.0948C119.877 82.2548 121.567 80.5548 122.687 78.5048C118.827 75.8248 105.447 66.5248 103.717 65.4448C103.717 65.4448 98.4567 68.5548 98.1167 68.5848C98.0767 68.6148 100.987 70.7348 102.547 71.9248C101.387 71.6048 98.8867 71.3148 96.2567 71.8548C92.9867 69.6948 87.9667 66.4748 87.8967 66.5248C87.8467 66.5648 85.7867 67.8348 84.7467 68.5948C84.3567 68.8848 84.1067 69.0948 84.1667 69.1448C84.3867 69.2948 88.2567 72.0948 91.4467 74.2048C88.2867 77.1548 90.9467 83.8948 99.0567 89.5248C108.197 95.8748 114.967 96.5548 122.187 96.8048C128.237 97.0348 132.707 96.1148 135.387 97.9748C138.357 100.035 137.637 101.525 136.957 102.015C135.787 102.865 132.867 102.655 128.367 99.8048C128.257 99.7248 127.377 100.255 126.377 100.995C124.647 102.255 122.537 104.125 123.237 104.615C125.627 106.275 139.327 116.705 139.677 116.675C142.127 116.485 144.297 115.125 145.317 114.375C145.717 114.085 145.937 113.885 145.937 113.885L142.637 111.215C143.757 111.455 145.377 111.455 146.937 111.145C148.907 112.465 154.757 116.475 155.157 116.695C155.237 116.745 155.397 116.665 155.597 116.515C156.447 115.885 158.067 113.925 157.797 113.695Z" fill="url(#paint2_linear_1_593)"/>
<path d="M134.045 82.2146L131.255 76.1846L139.775 78.0246L142.565 84.0346L134.045 82.2146ZM101.335 98.0246L104.135 104.045L112.645 105.885L109.865 99.8646L101.335 98.0246ZM173.065 126.545C158.795 136.965 124.255 129.525 96.0648 109.935C67.8748 90.3546 56.5548 65.9346 70.8348 55.5146C85.1048 45.0946 119.655 52.5446 147.845 72.1346C176.025 91.7246 187.345 116.125 173.065 126.545ZM168.425 123.325C181.405 113.855 171.115 91.6646 145.495 73.8646C119.875 56.0646 88.4648 49.2846 75.4848 58.7546C62.5048 68.2246 72.8048 90.4246 98.4248 108.235C124.045 126.025 155.445 132.795 168.425 123.325ZM158.125 113.245C157.865 113.015 153.475 110.065 151.425 108.695C155.655 104.985 152.675 98.8846 145.605 93.9746C134.975 86.5846 127.935 86.3146 121.095 86.3346C116.385 86.2846 112.635 87.1146 108.405 84.1646C106.175 82.6146 105.965 81.0746 107.055 80.2746C108.255 79.3946 112.485 80.1246 118.215 83.1446C118.435 83.0546 118.725 82.8846 119.055 82.6446C120.205 81.8046 121.895 80.1046 123.015 78.0546C119.155 75.3746 105.775 66.0746 104.045 64.9946C104.045 64.9946 98.7848 68.1046 98.4448 68.1346C98.4048 68.1646 101.315 70.2846 102.875 71.4746C101.715 71.1546 99.2148 70.8646 96.5848 71.4046C93.3148 69.2446 88.2948 66.0246 88.2248 66.0746C88.1748 66.1146 86.1148 67.3846 85.0748 68.1446C84.6848 68.4346 84.4348 68.6446 84.4948 68.6846C84.7148 68.8346 88.5848 71.6346 91.7748 73.7446C88.6148 76.6946 91.2748 83.4246 99.3848 89.0646C108.525 95.4146 115.295 96.0946 122.515 96.3446C128.565 96.5746 133.035 95.6546 135.715 97.5146C138.685 99.5746 137.965 101.065 137.285 101.555C136.115 102.405 133.195 102.195 128.695 99.3446C128.585 99.2646 127.705 99.7946 126.705 100.535C124.975 101.795 122.865 103.665 123.565 104.155C125.955 105.815 139.655 116.245 140.005 116.215C142.455 116.025 144.625 114.665 145.645 113.915C146.045 113.625 146.265 113.425 146.265 113.425L142.965 110.755C144.085 110.995 145.705 110.995 147.265 110.685C149.235 112.005 155.085 116.015 155.485 116.235C155.565 116.285 155.725 116.205 155.925 116.055C156.775 115.435 158.405 113.475 158.125 113.245Z" fill="url(#paint3_linear_1_593)"/>
<path opacity="0.7" d="M158.126 113.245C157.866 113.015 153.476 110.065 151.426 108.695C155.656 104.985 152.676 98.8846 145.606 93.9746C134.976 86.5846 127.936 86.3146 121.096 86.3346C116.386 86.2846 112.636 87.1146 108.406 84.1646C106.176 82.6146 105.966 81.0746 107.056 80.2746C108.256 79.3946 112.486 80.1246 118.216 83.1446C118.436 83.0546 118.726 82.8846 119.056 82.6446C120.206 81.8046 121.896 80.1046 123.016 78.0546C119.156 75.3746 105.776 66.0746 104.046 64.9946C104.046 64.9946 98.7864 68.1046 98.4464 68.1346C98.4064 68.1646 101.316 70.2846 102.876 71.4746C101.716 71.1546 99.2164 70.8646 96.5864 71.4046C93.3164 69.2446 88.2964 66.0246 88.2264 66.0746C88.1764 66.1146 86.1164 67.3846 85.0764 68.1446C84.6864 68.4346 84.4364 68.6446 84.4964 68.6846C84.7164 68.8346 88.5864 71.6346 91.7764 73.7446C88.6164 76.6946 91.2764 83.4246 99.3864 89.0646C108.526 95.4146 115.296 96.0946 122.516 96.3446C128.566 96.5746 133.036 95.6546 135.716 97.5146C138.686 99.5746 137.966 101.065 137.286 101.555C136.116 102.405 133.196 102.195 128.696 99.3446C128.586 99.2646 127.706 99.7946 126.706 100.535C124.976 101.795 122.866 103.665 123.566 104.155C125.956 105.815 139.656 116.245 140.006 116.215C142.456 116.025 144.626 114.665 145.646 113.915C146.046 113.625 146.266 113.425 146.266 113.425L142.966 110.755C144.086 110.995 145.706 110.995 147.266 110.685C149.236 112.005 155.086 116.015 155.486 116.235C155.566 116.285 155.726 116.205 155.926 116.055C156.776 115.435 158.406 113.475 158.126 113.245ZM155.556 115.935C155.116 115.655 153.056 114.255 151.226 113.015C149.736 112.005 148.246 110.985 147.426 110.435L147.326 110.365L147.206 110.385C145.756 110.675 144.156 110.695 143.026 110.455L142.776 110.985L145.796 113.425C145.706 113.495 145.596 113.575 145.476 113.665C144.446 114.415 142.386 115.695 140.056 115.895C139.396 115.545 134.426 111.825 130.406 108.815C127.476 106.625 124.696 104.545 123.746 103.885C123.646 103.605 124.686 102.365 126.886 100.755C127.776 100.105 128.406 99.7246 128.636 99.6346C133.296 102.565 136.246 102.665 137.466 101.775C138.026 101.365 138.686 100.295 137.636 98.8546C137.256 98.3246 136.666 97.7846 135.896 97.2446C133.946 95.8946 131.126 95.9446 127.566 96.0246C126.066 96.0546 124.356 96.0946 122.546 96.0246C115.306 95.7746 108.586 95.0646 99.5764 88.8046C96.8864 86.9346 94.6464 84.8246 93.1064 82.7046C90.4964 79.1046 90.0664 75.7446 91.9964 73.9446L92.2764 73.6846L91.9564 73.4746C90.1264 72.2646 87.7764 70.6346 84.9564 68.6146L84.9364 68.6046C85.0064 68.5446 85.1164 68.4646 85.2564 68.3646C86.0964 67.7546 87.6064 66.7946 88.1764 66.4446C88.2064 66.4246 88.2264 66.4146 88.2464 66.3946C89.0464 66.8446 93.2664 69.5446 96.4264 71.6346L96.5264 71.7046L96.6464 71.6846C99.3364 71.1346 101.776 71.4746 102.796 71.7546L103.056 71.2246C102.406 70.7346 101.526 70.0746 100.716 69.4746C100.096 69.0146 99.4164 68.5046 99.0064 68.1946C100.006 67.6946 102.166 66.4446 104.036 65.3346C105.506 66.2846 111.746 70.5846 122.616 78.1346C121.506 80.0746 119.926 81.6246 118.876 82.3946C118.636 82.5746 118.406 82.7146 118.226 82.8046C113.016 80.0846 108.366 78.9446 106.876 80.0246C105.936 80.7046 105.856 81.8346 106.666 82.9446C107.026 83.4446 107.546 83.9246 108.226 84.3946C111.726 86.8246 114.846 86.7446 118.466 86.6546C119.306 86.6346 120.186 86.6046 121.086 86.6246C128.666 86.6046 135.266 87.1446 145.436 94.2146C147.826 95.8746 149.796 97.7146 151.116 99.5346C153.696 103.085 153.736 106.255 151.226 108.455L150.936 108.715L151.256 108.935C154.866 111.345 157.316 113.005 157.826 113.385C157.646 113.825 156.516 115.235 155.736 115.805C155.656 115.885 155.596 115.915 155.556 115.935ZM101.336 98.0246L104.136 104.045L112.646 105.885L109.866 99.8646L101.336 98.0246ZM112.126 105.465L104.346 103.785L101.866 98.4446L109.656 100.125L112.126 105.465ZM142.556 84.0446L139.766 78.0346L131.246 76.1946L134.036 82.2246L142.556 84.0446ZM131.776 76.6046L139.566 78.2846L142.036 83.6146L134.256 81.9446L131.776 76.6046ZM147.846 72.1346C119.656 52.5546 85.1164 45.0946 70.8364 55.5146C56.5664 65.9346 67.8864 90.3546 96.0664 109.935C124.256 129.515 158.796 136.965 173.066 126.545C187.346 116.125 176.026 91.7246 147.846 72.1346ZM96.2364 109.695C86.5064 102.935 78.4364 95.3346 72.9064 87.7246C62.9964 74.0846 62.2864 62.1346 71.0064 55.7646C85.1864 45.4146 119.576 52.8746 147.666 72.3846C157.396 79.1446 165.466 86.7446 170.996 94.3546C180.906 107.995 181.606 119.935 172.886 126.305C158.716 136.665 124.326 129.205 96.2364 109.695ZM167.006 93.7146C161.946 86.7446 154.566 79.7946 145.666 73.6046C119.946 55.7346 88.3764 48.9546 75.3064 58.5046C67.0864 64.5046 67.6864 75.6646 76.9064 88.3646C81.9664 95.3346 89.3464 102.285 98.2464 108.475C123.966 126.345 155.526 133.115 168.596 123.565C176.816 117.565 176.216 106.405 167.006 93.7146ZM98.4164 108.225C72.7964 90.4246 62.4964 68.2246 75.4764 58.7446C88.4564 49.2746 119.856 56.0546 145.486 73.8546C171.106 91.6546 181.396 113.845 168.416 123.315C155.446 132.795 124.046 126.025 98.4164 108.225Z" fill="url(#paint4_linear_1_593)"/>
<path d="M170.874 145.424C170.884 145.414 170.894 145.414 170.904 145.404C171.464 145.064 172.004 144.714 172.524 144.334C172.564 144.304 172.594 144.284 172.634 144.254C172.864 144.084 173.064 143.894 173.284 143.724C173.564 143.494 173.854 143.274 174.114 143.034C174.134 143.014 174.154 143.004 174.174 142.984C174.364 142.804 174.534 142.614 174.714 142.434C174.964 142.184 175.224 141.934 175.464 141.674C175.484 141.654 175.514 141.624 175.534 141.604C175.694 141.424 175.824 141.224 175.974 141.044C176.194 140.764 176.424 140.494 176.624 140.204C176.644 140.174 176.674 140.144 176.704 140.104C177.004 139.674 177.274 139.224 177.524 138.774L184.544 126.044C184.274 126.534 183.974 127.004 183.644 127.474C183.444 127.764 183.214 128.034 182.994 128.314C182.824 128.524 182.674 128.744 182.484 128.944C182.254 129.204 181.994 129.454 181.734 129.704C181.534 129.904 181.344 130.114 181.134 130.304C180.874 130.544 180.584 130.764 180.304 130.994C180.054 131.194 179.814 131.414 179.544 131.614C179.024 131.994 178.484 132.344 177.924 132.684C177.824 132.744 177.714 132.794 177.614 132.854C177.114 133.144 176.604 133.424 176.064 133.684C175.564 133.924 175.054 134.154 174.534 134.364C174.424 134.404 174.324 134.444 174.214 134.494C173.644 134.714 173.064 134.934 172.464 135.124C172.434 135.134 172.394 135.144 172.364 135.154C171.804 135.334 171.234 135.494 170.644 135.644C170.474 135.684 170.304 135.734 170.134 135.774C169.504 135.924 168.864 136.074 168.204 136.204C168.194 136.204 168.184 136.204 168.174 136.204C167.504 136.334 166.824 136.434 166.124 136.534C165.904 136.564 165.674 136.594 165.454 136.614C164.984 136.674 164.514 136.724 164.034 136.764C163.654 136.804 163.274 136.824 162.884 136.854C162.464 136.884 162.044 136.914 161.624 136.934C161.234 136.954 160.834 136.964 160.434 136.974C159.964 136.984 159.484 136.994 159.004 136.994C158.734 136.994 158.474 136.994 158.204 136.994C157.604 136.984 157.004 136.974 156.394 136.944C156.194 136.934 155.994 136.934 155.794 136.924C154.984 136.884 154.174 136.834 153.344 136.764C153.154 136.744 152.974 136.724 152.784 136.714C152.184 136.664 151.574 136.604 150.964 136.534C149.864 136.414 148.754 136.274 147.624 136.104C147.574 136.094 147.524 136.084 147.474 136.084C146.394 135.914 145.294 135.724 144.184 135.514C143.834 135.444 143.484 135.374 143.124 135.304C142.274 135.134 141.414 134.954 140.554 134.754C140.194 134.674 139.834 134.594 139.474 134.504C138.374 134.244 137.274 133.964 136.164 133.664C136.074 133.644 135.984 133.614 135.894 133.594C134.564 133.234 133.214 132.834 131.864 132.414C131.524 132.304 131.174 132.194 130.834 132.084C129.584 131.684 128.324 131.264 127.054 130.814C126.934 130.774 126.804 130.734 126.684 130.684C126.444 130.594 126.204 130.504 125.964 130.414C125.224 130.144 124.484 129.874 123.734 129.584C123.374 129.444 123.014 129.294 122.644 129.154C122.064 128.924 121.494 128.694 120.914 128.464C119.574 127.914 118.244 127.354 116.904 126.754C116.614 126.624 116.314 126.484 116.024 126.354C115.104 125.934 114.174 125.504 113.254 125.064C112.824 124.864 112.394 124.654 111.974 124.444C111.244 124.084 110.504 123.714 109.774 123.344C109.334 123.114 108.894 122.894 108.454 122.664C107.754 122.294 107.054 121.924 106.354 121.544C105.924 121.314 105.504 121.084 105.074 120.844C104.364 120.444 103.654 120.034 102.934 119.624C102.544 119.404 102.164 119.184 101.774 118.954C100.994 118.494 100.214 118.014 99.4339 117.534C99.1439 117.354 98.8439 117.184 98.5539 117.004C97.4839 116.344 96.4239 115.664 95.3739 114.964C94.3839 114.314 93.3939 113.644 92.4139 112.964C92.1139 112.754 91.8139 112.534 91.5139 112.324C90.7539 111.784 89.9939 111.244 89.2539 110.704C88.9439 110.474 88.6339 110.244 88.3239 110.014C87.6039 109.474 86.8939 108.934 86.1939 108.384C85.9339 108.184 85.6639 107.974 85.4039 107.774C84.4439 107.014 83.5139 106.254 82.5939 105.494C82.4539 105.374 82.3139 105.254 82.1739 105.134C81.3439 104.424 80.5239 103.714 79.7239 103.004C79.4939 102.804 79.2639 102.594 79.0439 102.394C78.0539 101.494 77.0939 100.594 76.1639 99.6944C75.8139 99.3544 75.4739 99.0143 75.1339 98.6743C74.8839 98.4243 74.6239 98.1643 74.3739 97.9143C73.9939 97.5243 73.6239 97.1344 73.2539 96.7544C73.0339 96.5244 72.8139 96.2944 72.5939 96.0644C72.4439 95.9044 72.3039 95.7444 72.1539 95.5844C71.6339 95.0243 71.1339 94.4644 70.6439 93.9044C70.4239 93.6544 70.2139 93.4043 70.0039 93.1643C69.5939 92.6843 69.1939 92.2143 68.8039 91.7343C68.5939 91.4743 68.3839 91.2244 68.1839 90.9744C67.7539 90.4344 67.3239 89.8844 66.9139 89.3444C66.7639 89.1444 66.6039 88.9444 66.4539 88.7444C65.9139 88.0144 65.3839 87.2844 64.8939 86.5544C64.8039 86.4244 64.7139 86.2844 64.6239 86.1544C64.2239 85.5544 63.8339 84.9643 63.4639 84.3643C63.3139 84.1243 63.1739 83.8944 63.0339 83.6544C62.7239 83.1444 62.4239 82.6443 62.1439 82.1343C62.0139 81.9043 61.8739 81.6644 61.7539 81.4344C61.4239 80.8344 61.1139 80.2444 60.8239 79.6544C60.7639 79.5344 60.7039 79.4144 60.6439 79.3044C60.3039 78.6044 59.9839 77.9043 59.6839 77.2043C59.6039 77.0143 59.5339 76.8243 59.4539 76.6343C59.2439 76.1243 59.0539 75.6243 58.8639 75.1143C58.7839 74.8843 58.7039 74.6543 58.6239 74.4243C58.4539 73.9343 58.3039 73.4444 58.1639 72.9644C58.1039 72.7644 58.0439 72.5744 57.9939 72.3744C57.8139 71.7144 57.6539 71.0544 57.5239 70.4044C57.5139 70.3344 57.5039 70.2644 57.4839 70.1844C57.3739 69.6044 57.2839 69.0344 57.2039 68.4744C57.1739 68.2744 57.1639 68.0744 57.1439 67.8744C57.0939 67.4344 57.0639 66.9844 57.0439 66.5544C57.0339 66.3544 57.0239 66.1444 57.0239 65.9444C57.0139 65.4644 57.0239 64.9843 57.0439 64.5143C57.0539 64.3843 57.0439 64.2544 57.0539 64.1244C57.0939 63.5344 57.1639 62.9543 57.2539 62.3843C57.2739 62.2443 57.3139 62.1043 57.3339 61.9543C57.4139 61.5243 57.5039 61.1044 57.6139 60.6844C57.6639 60.5044 57.7139 60.3143 57.7739 60.1343C57.8939 59.7443 58.0239 59.3744 58.1639 58.9944C58.2239 58.8344 58.2839 58.6643 58.3539 58.5143C58.5739 57.9943 58.8039 57.4844 59.0839 56.9944L52.0639 69.7244C51.7939 70.2144 51.5539 70.7244 51.3339 71.2444C51.2639 71.4044 51.2139 71.5644 51.1439 71.7244C51.0039 72.0944 50.8739 72.4743 50.7539 72.8643C50.7039 73.0443 50.6439 73.2243 50.5939 73.4143C50.4839 73.8343 50.3939 74.2544 50.3139 74.6844C50.2839 74.8244 50.2539 74.9643 50.2339 75.1143C50.1439 75.6843 50.0739 76.2643 50.0339 76.8543C50.0239 76.9843 50.0239 77.1144 50.0239 77.2444C50.0039 77.7144 49.9939 78.1843 50.0039 78.6743C50.0039 78.8743 50.0139 79.0844 50.0239 79.2844C50.0439 79.7244 50.0739 80.1643 50.1239 80.6043C50.1439 80.8043 50.1639 81.0043 50.1839 81.2043C50.2539 81.7643 50.3439 82.3343 50.4539 82.9143C50.4639 82.9843 50.4739 83.0643 50.4939 83.1343C50.6239 83.7843 50.7839 84.4443 50.9639 85.1043C51.0139 85.2943 51.0739 85.4944 51.1339 85.6944C51.2739 86.1744 51.4239 86.6644 51.5939 87.1544C51.6739 87.3844 51.7539 87.6144 51.8339 87.8444C52.0139 88.3444 52.2139 88.8543 52.4239 89.3543C52.5039 89.5443 52.5739 89.7344 52.6539 89.9344C52.9539 90.6244 53.2639 91.3244 53.6139 92.0344C53.6739 92.1544 53.7339 92.2743 53.7939 92.3843C54.0839 92.9743 54.3939 93.5743 54.7239 94.1643C54.8539 94.3943 54.9839 94.6243 55.1139 94.8643C55.4039 95.3643 55.6939 95.8743 56.0039 96.3843C56.1439 96.6243 56.2939 96.8544 56.4339 97.0944C56.8039 97.6944 57.1939 98.2843 57.6039 98.8843C57.6939 99.0143 57.7739 99.1444 57.8639 99.2844C58.3639 100.014 58.8839 100.744 59.4339 101.474C59.5839 101.674 59.7339 101.874 59.8839 102.064C60.2939 102.614 60.7239 103.154 61.1539 103.704C61.2439 103.824 61.3339 103.944 61.4339 104.054C61.5439 104.194 61.6639 104.324 61.7739 104.464C62.1639 104.944 62.5639 105.424 62.9739 105.894C63.1839 106.144 63.3939 106.384 63.6139 106.634C64.1039 107.194 64.6139 107.754 65.1239 108.314C65.2439 108.444 65.3539 108.574 65.4739 108.704C65.5039 108.734 65.5339 108.764 65.5539 108.794C65.7639 109.024 65.9939 109.254 66.2139 109.484C66.5839 109.874 66.9439 110.264 67.3239 110.644C67.5739 110.904 67.8339 111.154 68.0939 111.414C68.3839 111.704 68.6739 112.004 68.9739 112.294C69.0239 112.344 69.0739 112.384 69.1239 112.434C70.0539 113.334 71.0139 114.234 72.0039 115.134C72.1039 115.224 72.1839 115.314 72.2839 115.394C72.4139 115.514 72.5539 115.624 72.6839 115.744C73.4839 116.454 74.2939 117.164 75.1339 117.874C75.2439 117.964 75.3339 118.054 75.4439 118.144C75.4739 118.174 75.5139 118.204 75.5439 118.224C76.4539 118.994 77.3939 119.754 78.3539 120.504C78.4339 120.574 78.5139 120.634 78.5939 120.704C78.7739 120.844 78.9639 120.984 79.1339 121.124C79.8339 121.674 80.5439 122.214 81.2639 122.754C81.4339 122.884 81.6039 123.014 81.7739 123.144C81.9139 123.244 82.0539 123.344 82.1939 123.444C82.9339 123.994 83.6939 124.534 84.4639 125.074C84.6439 125.204 84.8239 125.334 85.0039 125.464C85.1239 125.544 85.2339 125.624 85.3539 125.714C86.3139 126.384 87.2839 127.044 88.2639 127.684C88.2839 127.694 88.2939 127.704 88.3139 127.714C89.3639 128.414 90.4239 129.084 91.4939 129.754C91.5239 129.774 91.5439 129.784 91.5739 129.804C91.8439 129.974 92.1039 130.124 92.3739 130.284C93.1539 130.764 93.9339 131.244 94.7139 131.704C94.7839 131.744 94.8439 131.784 94.9139 131.824C95.2339 132.014 95.5539 132.184 95.8739 132.364C96.5839 132.774 97.2939 133.184 98.0139 133.584C98.1339 133.654 98.2539 133.724 98.3739 133.784C98.6839 133.954 98.9839 134.114 99.2939 134.274C99.9939 134.654 100.694 135.034 101.394 135.404C101.574 135.504 101.754 135.604 101.934 135.694C102.194 135.824 102.454 135.954 102.714 136.084C103.444 136.454 104.184 136.824 104.914 137.184C105.164 137.304 105.404 137.434 105.654 137.554C105.834 137.644 106.014 137.724 106.194 137.804C107.114 138.244 108.044 138.674 108.964 139.094C109.194 139.194 109.424 139.314 109.664 139.414C109.724 139.444 109.794 139.464 109.854 139.494C111.194 140.094 112.524 140.654 113.864 141.204C113.984 141.254 114.094 141.304 114.214 141.354C114.674 141.544 115.144 141.714 115.604 141.904C115.964 142.044 116.324 142.194 116.684 142.324C117.434 142.614 118.174 142.884 118.914 143.154C119.154 143.244 119.394 143.334 119.634 143.424C119.664 143.434 119.694 143.444 119.724 143.454C119.814 143.484 119.904 143.514 120.004 143.544C121.274 143.994 122.534 144.414 123.784 144.814C124.124 144.924 124.474 145.034 124.814 145.144C126.164 145.564 127.514 145.964 128.844 146.324C128.854 146.324 128.864 146.334 128.884 146.334C128.964 146.354 129.034 146.374 129.114 146.394C130.224 146.694 131.334 146.974 132.424 147.234C132.784 147.324 133.144 147.404 133.504 147.484C134.364 147.684 135.224 147.864 136.074 148.034C136.424 148.104 136.774 148.174 137.124 148.244C138.234 148.454 139.334 148.644 140.414 148.814C140.464 148.824 140.514 148.834 140.564 148.834C141.694 149.004 142.804 149.144 143.904 149.264C144.014 149.274 144.134 149.294 144.254 149.304C144.754 149.354 145.234 149.394 145.724 149.444C145.914 149.464 146.104 149.484 146.284 149.494C147.114 149.564 147.924 149.614 148.734 149.654C148.934 149.664 149.134 149.664 149.334 149.674C149.944 149.694 150.544 149.714 151.144 149.724C151.414 149.724 151.674 149.724 151.944 149.724C152.194 149.724 152.444 149.734 152.694 149.724C152.924 149.724 153.154 149.704 153.384 149.704C153.784 149.694 154.174 149.684 154.574 149.664C155.004 149.644 155.414 149.614 155.834 149.584C156.224 149.554 156.604 149.524 156.984 149.494C157.154 149.474 157.334 149.474 157.504 149.454C157.814 149.424 158.104 149.374 158.414 149.344C158.634 149.314 158.864 149.294 159.084 149.264C159.774 149.164 160.454 149.064 161.124 148.934C161.134 148.934 161.144 148.934 161.154 148.924C161.814 148.794 162.454 148.654 163.084 148.504C163.254 148.464 163.424 148.414 163.584 148.374C163.774 148.324 163.964 148.284 164.144 148.234C164.534 148.124 164.924 148.004 165.304 147.884C165.334 147.874 165.364 147.864 165.394 147.854C165.824 147.714 166.254 147.564 166.674 147.414C166.834 147.354 166.994 147.284 167.154 147.224C167.264 147.184 167.364 147.144 167.474 147.094C167.954 146.904 168.414 146.704 168.874 146.484C168.924 146.464 168.964 146.434 169.004 146.414C169.534 146.154 170.054 145.874 170.554 145.584C170.684 145.514 170.784 145.474 170.874 145.424Z" fill="url(#paint5_linear_1_593)"/>
<path opacity="0.7" d="M166.703 136.424L68.5929 91.434C66.1629 88.434 64.0829 85.454 62.3929 82.534L174.963 134.154C172.503 135.204 169.733 135.954 166.703 136.424ZM186.413 120.264L57.4929 61.144C57.0629 62.984 56.9429 64.954 57.0829 67.014L184.753 125.554C185.593 123.924 186.143 122.144 186.413 120.264ZM182.063 129.364C182.653 128.744 183.173 128.084 183.643 127.404L57.3829 69.504C57.5529 70.484 57.7629 71.474 58.0429 72.494L182.063 129.364ZM173.853 90.164L78.3529 46.374C72.6529 47.054 67.7729 48.694 64.0729 51.394C63.9329 51.494 63.8029 51.614 63.6729 51.724L184.423 107.094C182.333 101.694 178.763 95.954 173.853 90.164Z" fill="url(#paint6_linear_1_593)"/>
</g>
<defs>
<filter id="filter0_d_1_593" x="0" y="0" width="236.6" height="203.729" filterUnits="userSpaceOnUse" color-interpolation-filters="sRGB">
<feFlood flood-opacity="0" result="BackgroundImageFix"/>
<feColorMatrix in="SourceAlpha" type="matrix" values="0 0 0 0 0 0 0 0 0 0 0 0 0 0 0 0 0 0 127 0" result="hardAlpha"/>
<feOffset dy="4"/>
<feGaussianBlur stdDeviation="25"/>
<feColorMatrix type="matrix" values="0 0 0 0 0.0666666 0 0 0 0 0.0941176 0 0 0 0 0.286275 0 0 0 0.5 0"/>
<feBlend mode="normal" in2="BackgroundImageFix" result="effect1_dropShadow_1_593"/>
<feBlend mode="normal" in="SourceGraphic" in2="effect1_dropShadow_1_593" result="shape"/>
</filter>
<linearGradient id="paint0_linear_1_593" x1="170.587" y1="78.234" x2="71.903" y2="105.066" gradientUnits="userSpaceOnUse">
<stop offset="0.0317" stop-color="#FCE878"/>
<stop offset="0.0527" stop-color="#FCE676"/>
<stop offset="0.6976" stop-color="#FEB432"/>
<stop offset="1" stop-color="#FFA018"/>
</linearGradient>
<linearGradient id="paint1_linear_1_593" x1="43.5505" y1="93.1455" x2="177.153" y2="90.3303" gradientUnits="userSpaceOnUse">
<stop stop-color="#FFE6B9" stop-opacity="0"/>
<stop offset="0.3821" stop-color="#FFF3DE" stop-opacity="0.4239"/>
<stop offset="0.7037" stop-color="#FFFCF6" stop-opacity="0.7807"/>
<stop offset="0.9014" stop-color="white"/>
</linearGradient>
<linearGradient id="paint2_linear_1_593" x1="163.231" y1="87.6634" x2="72.1949" y2="96.016" gradientUnits="userSpaceOnUse">
<stop offset="0.0431" stop-color="#FFA018"/>
<stop offset="0.9874" stop-color="#D36B18"/>
</linearGradient>
<linearGradient id="paint3_linear_1_593" x1="52.485" y1="127.964" x2="152.364" y2="74.8656" gradientUnits="userSpaceOnUse">
<stop stop-color="#FFB817"/>
<stop offset="0.9893" stop-color="#FFFFBC"/>
</linearGradient>
<linearGradient id="paint4_linear_1_593" x1="79.0839" y1="92.3664" x2="175.365" y2="89.3771" gradientUnits="userSpaceOnUse">
<stop stop-color="#FFE6B9" stop-opacity="0"/>
<stop offset="0.3821" stop-color="#FFF3DE" stop-opacity="0.4239"/>
<stop offset="0.7037" stop-color="#FFFCF6" stop-opacity="0.7807"/>
<stop offset="0.9014" stop-color="white"/>
</linearGradient>
<linearGradient id="paint5_linear_1_593" x1="173.38" y1="146.166" x2="47.5076" y2="78.6023" gradientUnits="userSpaceOnUse">
<stop stop-color="#FFC826"/>
<stop offset="0.0945" stop-color="#FFA018"/>
<stop offset="0.2186" stop-color="#F8771E"/>
<stop offset="0.3662" stop-color="#EC6D1A"/>
<stop offset="0.6301" stop-color="#CD510E"/>
<stop offset="0.721" stop-color="#C14609"/>
<stop offset="0.7796" stop-color="#C64A0B"/>
<stop offset="0.8451" stop-color="#D35610"/>
<stop offset="0.9137" stop-color="#E96A18"/>
<stop offset="0.9495" stop-color="#F8771E"/>
<stop offset="0.9701" stop-color="#F87A1E"/>
<stop offset="0.9825" stop-color="#FA821C"/>
<stop offset="0.9927" stop-color="#FC901A"/>
<stop offset="1" stop-color="#FFA018"/>
</linearGradient>
<linearGradient id="paint6_linear_1_593" x1="67.1031" y1="92.5345" x2="199.69" y2="89.8133" gradientUnits="userSpaceOnUse">
<stop stop-color="#FFE6B9" stop-opacity="0"/>
<stop offset="0.9014" stop-color="white"/>
</linearGradient>
</defs>
</svg>
