<svg width="176" height="197" viewBox="0 0 176 197" fill="none" xmlns="http://www.w3.org/2000/svg">
<g style="mix-blend-mode:luminosity" filter="url(#filter0_d_1_583)">
<path d="M124.936 126.018C119.792 141.31 97.5231 137.945 75.1923 118.494C52.8615 99.0434 38.924 70.8835 44.0677 55.583C49.2115 40.2902 71.4807 43.663 93.8116 63.1139C116.142 82.5648 130.08 110.725 124.936 126.018Z" fill="url(#paint0_linear_1_583)"/>
<path opacity="0.7" d="M93.8116 63.1217C71.4807 43.6708 49.2115 40.2981 44.0677 55.5908C38.924 70.8836 52.8615 99.0512 75.1923 118.502C97.5231 137.953 119.792 141.318 124.936 126.025C130.08 110.725 116.142 82.5649 93.8116 63.1217ZM124.567 125.81C122.28 132.609 116.397 135.897 107.996 135.081C98.5088 134.157 86.6272 128.004 75.3848 118.217C53.2388 98.928 39.3629 70.9298 44.4451 55.7987C46.732 48.9994 52.6151 45.7114 61.0161 46.5353C70.5028 47.4593 82.3921 53.6118 93.6345 63.3989C115.773 82.6881 129.649 110.686 124.567 125.81Z" fill="url(#paint1_linear_1_583)"/>
<path d="M80.578 102.208L83.6274 108.352L78.7608 107.598L75.7038 101.453L80.578 102.208ZM93.0987 80.1771L90.0494 74.0323L85.1751 73.2777L88.2321 79.4302L93.0987 80.1771ZM120.204 121.997C115.684 135.442 95.9478 132.4 76.2043 115.206C56.4607 98.011 44.0787 73.0775 48.5988 59.6328C53.1188 46.1881 72.8624 49.2451 92.5982 66.4398C112.349 83.6346 124.724 108.553 120.204 121.997ZM91.859 68.6575C73.9096 53.0259 55.9679 50.2461 51.856 62.4665C47.744 74.6868 59.0096 97.3565 76.9512 112.988C94.9006 128.62 112.842 131.384 116.947 119.164C121.058 106.943 109.808 84.2814 91.859 68.6575ZM97.3416 90.5571C89.8954 84.0735 86.2146 84.805 82.7033 85.8291C80.27 86.4606 78.576 87.9159 75.6037 85.3286C74.0405 83.9657 73.5169 82.3178 73.8634 81.2937C74.2407 80.1617 76.6124 80.3388 80.3624 82.7798C80.4471 82.6489 80.555 82.4256 80.6551 82.1099C81.017 81.0242 81.4251 78.9297 81.4482 76.5272C78.7454 74.1709 69.3741 66.0086 68.196 65.0846C68.196 65.0846 66.3325 69.235 66.1631 69.3197C66.1477 69.3582 68.2191 71.2448 69.3356 72.3074C68.658 72.1303 67.295 72.1842 66.0861 73.1468C63.8299 71.2679 60.3802 68.5035 60.3571 68.5728C60.3417 68.6267 59.6255 70.3131 59.3021 71.291C59.1789 71.6606 59.1096 71.9301 59.1558 71.9686C59.3098 72.0995 62.0512 74.579 64.2535 76.4117C63.4218 80.0924 66.602 87.0304 72.2849 91.9817C78.6915 97.5567 82.3491 97.3026 86.1222 96.5171C89.2948 95.8857 91.3354 94.2225 93.2142 95.8626C95.2933 97.6722 95.3241 99.397 95.1085 100.036C94.7388 101.137 93.1834 101.338 90.1033 98.8811C90.0263 98.8118 89.7183 99.5202 89.4026 100.467C88.8559 102.092 88.2706 104.441 88.7634 104.864C90.4344 106.32 100.275 115.675 100.445 115.591C101.654 115.029 102.401 113.227 102.724 112.264C102.847 111.887 102.909 111.64 102.909 111.64L100.491 109.215C101.13 109.315 101.962 109.076 102.678 108.506C104.049 109.654 108.122 113.157 108.391 113.35C108.445 113.388 108.507 113.288 108.569 113.096C108.838 112.295 109.146 109.923 108.938 109.708C108.746 109.492 105.696 106.928 104.28 105.734C105.465 101.068 102.293 94.8616 97.3416 90.5571Z" fill="url(#paint2_linear_1_583)"/>
<path d="M81.1445 101.793L84.1938 107.937L79.3272 107.183L76.2702 101.038L81.1445 101.793ZM93.6651 79.7621L90.6158 73.6173L85.7415 72.8626L88.7985 79.0152L93.6651 79.7621ZM120.77 121.582C116.25 135.027 96.5142 131.985 76.7707 114.791C57.0271 97.596 44.6451 72.6624 49.1652 59.2177C53.6852 45.773 73.4288 48.83 93.1646 66.0248C112.916 83.2118 125.29 108.138 120.77 121.582ZM92.4254 68.2348C74.476 52.6032 56.5343 49.8234 52.4224 62.0437C48.3104 74.2641 59.576 96.9337 77.5176 112.565C95.467 128.197 113.409 130.961 117.513 118.741C121.625 106.521 110.375 83.8663 92.4254 68.2348ZM97.908 90.1344C90.4618 83.6507 86.7811 84.3823 83.2697 85.4064C80.8364 86.0378 79.1424 87.4932 76.1701 84.9059C74.6069 83.5429 74.0833 81.8951 74.4298 80.8709C74.8071 79.739 77.1788 79.9161 80.9289 82.3571C81.0136 82.2262 81.1214 82.0029 81.2215 81.6872C81.5834 80.6014 81.9915 78.5069 82.0146 76.1045C79.3118 73.7482 69.9406 65.5859 68.7624 64.6618C68.7624 64.6618 66.8989 68.8123 66.7295 68.897C66.7141 68.9355 68.7855 70.8221 69.902 71.8847C69.2244 71.7076 67.8615 71.7615 66.6525 72.724C64.3964 70.8452 60.9466 68.0808 60.9235 68.1501C60.9081 68.204 60.192 69.8903 59.8686 70.8683C59.7454 71.2379 59.6761 71.5074 59.7223 71.5459C59.8763 71.6768 62.6176 74.1563 64.8199 75.989C63.9882 79.6697 67.1684 86.6076 72.8513 91.5589C79.2579 97.1339 82.9155 96.8798 86.6886 96.0944C89.8612 95.463 91.9018 93.7997 93.7806 95.4399C95.8597 97.2494 95.8905 98.9743 95.6749 99.6134C95.3053 100.715 93.7498 100.915 90.6697 98.4584C90.5927 98.3891 90.2847 99.0975 89.969 100.045C89.4223 101.669 88.837 104.018 89.3298 104.442C91.0008 105.897 100.842 115.253 101.011 115.168C102.22 114.606 102.967 112.804 103.29 111.841C103.414 111.464 103.475 111.218 103.475 111.218L101.057 108.792C101.697 108.892 102.528 108.654 103.244 108.084C104.615 109.231 108.688 112.735 108.958 112.927C109.012 112.966 109.073 112.866 109.135 112.673C109.405 111.865 109.713 109.501 109.505 109.285C109.312 109.069 106.263 106.505 104.846 105.312C106.032 100.645 102.859 94.4465 97.908 90.1344Z" fill="url(#paint3_linear_1_583)"/>
<path opacity="0.7" d="M97.9081 90.1343C90.4619 83.6506 86.7812 84.3821 83.2698 85.4063C80.8365 86.0377 79.1425 87.4931 76.1702 84.9058C74.607 83.5428 74.0834 81.895 74.4299 80.8708C74.8072 79.7389 77.1789 79.916 80.929 82.357C81.0137 82.2261 81.1215 82.0028 81.2216 81.687C81.5835 80.6013 81.9916 78.5068 82.0147 76.1043C79.3119 73.7481 69.9407 65.5857 68.7625 64.6617C68.7625 64.6617 66.899 68.8122 66.7296 68.8969C66.7142 68.9354 68.7856 70.8219 69.9021 71.8846C69.2245 71.7075 67.8616 71.7614 66.6526 72.7239C64.3965 70.845 60.9467 68.0806 60.9236 68.1499C60.9082 68.2038 60.1921 69.8902 59.8687 70.8681C59.7455 71.2378 59.6762 71.5073 59.7224 71.5458C59.8764 71.6767 62.6177 74.1562 64.82 75.9888C63.9883 79.6696 67.1686 86.6075 72.8514 91.5588C79.258 97.1338 82.9156 96.8797 86.6888 96.0943C89.8613 95.4629 91.9019 93.7996 93.7807 95.4398C95.8598 97.2493 95.8906 98.9742 95.675 99.6133C95.3054 100.714 93.75 100.915 90.6698 98.4583C90.5928 98.389 90.2848 99.0974 89.9691 100.045C89.4224 101.669 88.8371 104.018 89.3299 104.441C91.0009 105.897 100.842 115.253 101.011 115.168C102.22 114.606 102.967 112.804 103.291 111.841C103.414 111.464 103.475 111.218 103.475 111.218L101.058 108.792C101.697 108.892 102.528 108.653 103.244 108.084C104.615 109.231 108.689 112.735 108.958 112.927C109.012 112.966 109.074 112.866 109.135 112.673C109.405 111.872 109.713 109.5 109.505 109.285C109.312 109.069 106.263 106.505 104.846 105.312C106.032 100.645 102.859 94.4464 97.9081 90.1343ZM109.351 109.439C109.443 109.685 109.204 111.795 108.927 112.604C108.927 112.604 108.927 112.604 108.927 112.611C108.457 112.226 107.187 111.141 106.047 110.163C105.008 109.277 103.976 108.392 103.406 107.914L103.26 107.791L103.113 107.907C102.505 108.384 101.789 108.638 101.188 108.576L100.403 108.461L103.221 111.295C103.19 111.402 103.144 111.572 103.075 111.78C102.821 112.534 102.128 114.313 101.027 114.914C100.403 114.436 96.9918 111.256 94.2351 108.669C92.1329 106.705 90.1539 104.857 89.484 104.272C89.2222 104.041 89.4147 102.432 90.1924 100.122C90.4157 99.4593 90.6005 99.005 90.716 98.7817C92.1637 99.9059 93.3649 100.522 94.2889 100.607C95.0898 100.684 95.675 100.345 95.8983 99.6826C96.1601 98.9049 96.0446 97.0953 93.9347 95.2627C93.4342 94.8237 92.8875 94.585 92.2715 94.5234C91.3397 94.431 90.3541 94.7621 89.2068 95.1395C88.4521 95.3936 87.5897 95.6785 86.6503 95.871C85.0871 96.2021 83.7472 96.3869 82.2611 96.2406C79.4351 95.9634 76.4936 94.4233 73.013 91.3894C67.1223 86.2533 64.2963 79.4309 65.0587 76.0427L65.0895 75.9041L64.9816 75.8117C63.7188 74.7645 62.0787 73.3322 60.092 71.5612L59.9611 71.4457C59.9765 71.3764 60.0073 71.2301 60.1074 70.9452C60.3615 70.1828 60.8543 68.997 61.0622 68.4811C61.7168 68.9816 64.4657 71.1916 66.5294 72.9087L66.6757 73.0319L66.822 72.9164C67.9771 71.9847 69.1783 72.0232 69.5248 72.0617C69.6557 72.0771 69.7713 72.0925 69.8714 72.1233L70.0869 71.7306C69.6172 71.284 68.9858 70.691 68.4006 70.152C67.8462 69.6361 67.2763 69.1048 67.0453 68.8815C67.2609 68.5273 67.7307 67.5878 68.8703 65.039C70.087 66.0401 74.4299 69.7978 81.7991 76.2198C81.7683 78.5915 81.3602 80.609 81.0214 81.6254C80.9598 81.8103 80.9058 81.9412 80.8596 82.0413C78.95 80.8246 77.2944 80.1162 76.0547 80.0007C74.7456 79.8698 74.3452 80.455 74.222 80.8092C73.8678 81.8565 74.2913 83.5813 76.0316 85.0983C77.1096 86.0377 78.0798 86.5151 79.0963 86.6152C80.1281 86.7153 81.0444 86.3996 82.0147 86.0608C82.4382 85.9145 82.8771 85.7605 83.3391 85.645C84.8022 85.2215 86.2498 84.8519 87.9901 85.0213C90.8315 85.2985 93.9347 86.9848 97.7695 90.3191C102.906 94.7929 105.732 100.938 104.646 105.265L104.607 105.404L104.715 105.496C107.441 107.783 109.22 109.3 109.351 109.439ZM76.2703 101.038L79.3273 107.183L84.1939 107.937L81.1446 101.792L76.2703 101.038ZM79.4813 106.975L76.6784 101.33L80.9906 102L83.7858 107.637L79.4813 106.975ZM93.1724 66.017C73.4289 48.8222 53.6931 45.7652 49.173 59.2099C44.6529 72.6546 57.035 97.5881 76.7785 114.783C96.522 131.978 116.258 135.019 120.778 121.575C125.29 108.138 112.916 83.2117 93.1724 66.017ZM120.555 121.505C118.553 127.465 113.37 130.353 105.963 129.629C97.5231 128.805 86.9352 123.33 76.9325 114.613C57.2506 97.4726 44.8993 72.6546 49.3963 59.2869C51.3983 53.3269 56.5806 50.447 63.9806 51.1708C72.4278 51.9947 83.008 57.4696 93.0261 66.1941C112.693 83.3349 125.044 108.145 120.555 121.505ZM92.5795 68.0652C83.4085 60.08 73.6984 55.0595 65.9288 54.3048C58.9755 53.6272 54.1012 56.3531 52.2069 61.982C48.0718 74.2871 59.3605 97.0645 77.3714 112.75C86.5348 120.735 96.2448 125.748 104.014 126.503C110.975 127.18 115.85 124.454 117.744 118.826C121.871 106.52 110.59 83.7507 92.5795 68.0652ZM117.521 118.749C113.409 130.969 95.4671 128.204 77.5254 112.573C59.5761 96.9413 48.3182 74.2717 52.4302 62.0513C56.5421 49.831 74.4838 52.6108 92.4332 68.2423C110.375 83.8662 121.625 106.52 117.521 118.749ZM93.6652 79.762L90.6159 73.6172L85.7416 72.8625L88.7986 79.015L93.6652 79.762ZM90.4619 73.8328L93.2648 79.4694L88.9604 78.8071L86.1574 73.1628L90.4619 73.8328Z" fill="url(#paint4_linear_1_583)"/>
<path d="M107.874 142.189C107.982 142.158 108.082 142.119 108.182 142.081C108.413 142.004 108.637 141.919 108.86 141.834C108.983 141.788 109.099 141.734 109.222 141.68C109.422 141.596 109.622 141.503 109.815 141.411C109.938 141.349 110.053 141.288 110.169 141.226C110.361 141.126 110.546 141.026 110.723 140.91C110.831 140.841 110.947 140.78 111.054 140.71C111.247 140.587 111.432 140.456 111.617 140.325C111.709 140.264 111.801 140.202 111.886 140.133C112.156 139.933 112.417 139.725 112.664 139.501C112.664 139.501 112.664 139.501 112.671 139.501L121.034 132.101C120.78 132.325 120.518 132.533 120.249 132.733C120.164 132.794 120.071 132.856 119.979 132.918C119.794 133.048 119.602 133.179 119.409 133.303C119.301 133.372 119.186 133.433 119.078 133.503C118.893 133.611 118.709 133.718 118.524 133.818C118.408 133.88 118.285 133.942 118.169 134.003C117.977 134.096 117.777 134.188 117.577 134.273C117.461 134.327 117.338 134.373 117.215 134.427C116.991 134.519 116.76 134.596 116.529 134.673C116.429 134.712 116.329 134.75 116.221 134.781C115.883 134.889 115.544 134.989 115.189 135.074C115.151 135.081 115.112 135.089 115.082 135.097C114.774 135.174 114.458 135.235 114.135 135.297C113.75 135.366 113.364 135.42 112.972 135.466C112.933 135.474 112.895 135.482 112.849 135.482C112.41 135.528 111.963 135.559 111.509 135.582C111.37 135.59 111.224 135.59 111.078 135.59C110.762 135.597 110.446 135.605 110.115 135.597C109.938 135.597 109.753 135.582 109.568 135.574C109.268 135.559 108.975 135.551 108.667 135.528C108.452 135.513 108.236 135.489 108.013 135.474C107.789 135.451 107.566 135.428 107.343 135.405C107.112 135.374 106.873 135.343 106.634 135.305C106.403 135.274 106.18 135.235 105.949 135.197C105.71 135.158 105.464 135.112 105.225 135.066C104.994 135.02 104.756 134.974 104.517 134.927C104.27 134.873 104.024 134.82 103.778 134.758C103.539 134.704 103.3 134.642 103.062 134.581C102.8 134.512 102.538 134.442 102.276 134.373C102.053 134.311 101.829 134.25 101.598 134.18C101.329 134.103 101.059 134.019 100.79 133.926C100.559 133.857 100.336 133.78 100.105 133.703C99.8274 133.611 99.5502 133.51 99.273 133.41C99.042 133.326 98.8187 133.249 98.5877 133.164C98.3027 133.056 98.0178 132.941 97.7329 132.833C97.5019 132.74 97.2786 132.656 97.0476 132.563C96.7858 132.456 96.524 132.34 96.2621 132.232C95.9849 132.117 95.7078 131.994 95.4306 131.87C95.1687 131.755 94.9069 131.632 94.6451 131.508C94.3602 131.377 94.083 131.247 93.7981 131.108C93.5363 130.977 93.2667 130.846 92.9972 130.708C92.7123 130.561 92.4274 130.423 92.1425 130.276C91.873 130.138 91.6035 129.991 91.334 129.845C91.0491 129.691 90.7642 129.537 90.4716 129.383C90.2714 129.268 90.0634 129.152 89.8632 129.037C89.4089 128.782 88.9546 128.513 88.5003 128.243C88.277 128.113 88.0537 127.974 87.8304 127.835C87.3761 127.558 86.9217 127.273 86.4674 126.981C86.2595 126.85 86.0593 126.719 85.8514 126.588C85.2123 126.172 84.5654 125.741 83.9186 125.294C83.9032 125.287 83.8955 125.279 83.8801 125.271C83.2256 124.817 82.5634 124.347 81.9011 123.862C81.5931 123.639 81.2851 123.4 80.9694 123.169C80.7307 122.992 80.492 122.815 80.2533 122.63C79.9145 122.368 79.5756 122.106 79.2368 121.837C79.0135 121.66 78.7902 121.49 78.5669 121.306C78.1973 121.005 77.82 120.697 77.4504 120.389C77.2579 120.235 77.0653 120.081 76.8805 119.919C76.3184 119.45 75.7563 118.965 75.1865 118.48C74.4395 117.833 73.7003 117.17 72.9765 116.501C72.7378 116.277 72.4991 116.054 72.2604 115.831C71.7753 115.376 71.2901 114.922 70.8204 114.46C70.5432 114.19 70.2737 113.921 69.9965 113.651C69.5653 113.228 69.1418 112.804 68.7183 112.373C68.4333 112.088 68.1561 111.796 67.8789 111.503C67.4785 111.08 67.0704 110.656 66.6777 110.232C66.4005 109.932 66.1309 109.64 65.8537 109.339C65.461 108.908 65.0683 108.469 64.6833 108.03C64.4215 107.738 64.1674 107.445 63.9133 107.152C63.5129 106.69 63.1278 106.228 62.7351 105.766C62.5041 105.489 62.2654 105.212 62.0421 104.935C61.6032 104.403 61.1797 103.864 60.7561 103.333C60.5867 103.117 60.4173 102.91 60.2479 102.694C59.6627 101.947 59.0929 101.192 58.5307 100.438C58.3921 100.253 58.2613 100.06 58.1227 99.8756C57.7222 99.3212 57.3141 98.7668 56.9291 98.2123C56.7366 97.9351 56.5441 97.6502 56.3516 97.373C56.0282 96.9033 55.7125 96.4413 55.3968 95.9716C55.1889 95.6636 54.9963 95.3556 54.7961 95.0475C54.5112 94.6086 54.2263 94.162 53.9491 93.7231C53.7489 93.3997 53.5487 93.0763 53.3562 92.7528C53.0944 92.3216 52.8326 91.8904 52.5784 91.4669C52.3474 91.0742 52.1165 90.6738 51.8854 90.2811C51.7391 90.027 51.5928 89.7728 51.4542 89.5264C51.1924 89.0567 50.9383 88.5947 50.6919 88.125C50.5841 87.9171 50.4686 87.7169 50.3608 87.509C50.0065 86.839 49.6677 86.1691 49.3366 85.5069C49.2981 85.4299 49.2673 85.3529 49.2288 85.2759C48.9362 84.683 48.659 84.09 48.3818 83.5048C48.2971 83.32 48.2124 83.1275 48.1277 82.9427C47.9198 82.4807 47.7118 82.0187 47.5116 81.5566C47.4192 81.3333 47.3191 81.11 47.2267 80.8944C47.0419 80.4478 46.8649 80.0089 46.6878 79.57C46.603 79.3621 46.526 79.1541 46.4413 78.9539C46.2257 78.3918 46.0178 77.8374 45.8253 77.283C45.8022 77.2137 45.7714 77.1367 45.7483 77.0597C45.525 76.4282 45.3248 75.8045 45.1323 75.1885C45.0707 75.0037 45.0245 74.8189 44.9706 74.6418C44.8397 74.2029 44.7088 73.7639 44.5932 73.3327C44.5316 73.1171 44.4778 72.8938 44.4162 72.6782C44.3084 72.2701 44.2082 71.8697 44.1158 71.4693C44.0696 71.2613 44.0157 71.0457 43.9695 70.8378C43.8848 70.4682 43.8155 70.0986 43.7462 69.7367C43.6923 69.4749 43.6384 69.2131 43.5922 68.9513C43.5229 68.5816 43.469 68.212 43.4151 67.8501C43.3766 67.6114 43.3381 67.365 43.3073 67.1263C43.2534 66.7259 43.2149 66.3332 43.1764 65.9405C43.1533 65.7479 43.1302 65.5477 43.1148 65.3552C43.0686 64.77 43.0301 64.1925 43.0147 63.6304V63.6227C42.9993 63.099 42.9993 62.5908 43.0147 62.0826C43.0147 61.9748 43.0224 61.867 43.0224 61.7592C43.0378 61.2664 43.0686 60.7813 43.1148 60.3038C43.1225 60.2268 43.1302 60.1421 43.1379 60.0651C43.1841 59.6262 43.238 59.2027 43.3073 58.7792C43.3227 58.7022 43.3304 58.6252 43.3458 58.5482C43.4228 58.0939 43.5152 57.6472 43.623 57.2083C43.6461 57.1159 43.6692 57.0158 43.6923 56.9234C43.8078 56.4768 43.931 56.0379 44.0696 55.6067C44.9244 53.0656 46.2488 51.0481 47.966 49.5234L39.6035 56.9234C37.8863 58.4481 36.5618 60.4656 35.7071 63.0066C35.5608 63.4302 35.4376 63.8768 35.3298 64.3234C35.3067 64.4158 35.2836 64.5159 35.2605 64.6083C35.1527 65.0472 35.0603 65.4938 34.9833 65.9558C34.9679 66.0328 34.9602 66.1099 34.9448 66.1869C34.8755 66.6104 34.8216 67.0416 34.7754 67.4728C34.7677 67.5498 34.76 67.6345 34.7523 67.7115C34.7061 68.1889 34.683 68.6741 34.6599 69.1669C34.6599 69.2747 34.6522 69.3825 34.6522 69.4903C34.6368 69.9985 34.6368 70.5067 34.6522 71.0303V71.038C34.6676 71.6079 34.7061 72.1777 34.7523 72.7629C34.7677 72.9554 34.7908 73.1479 34.8139 73.3404C34.8524 73.7408 34.8909 74.1336 34.9448 74.5417C34.9756 74.7804 35.0141 75.0191 35.0526 75.2578C35.1065 75.6274 35.1604 75.997 35.2297 76.3666C35.2759 76.6284 35.3298 76.8903 35.3837 77.1444C35.4376 77.4062 35.4761 77.668 35.5377 77.9298C35.5608 78.0376 35.5916 78.1454 35.6147 78.2532C35.6609 78.4611 35.7071 78.669 35.761 78.8769C35.8534 79.2774 35.9535 79.6855 36.0613 80.0936C36.1152 80.3092 36.1768 80.5248 36.2384 80.7404C36.3616 81.1716 36.4849 81.6105 36.6158 82.0495C36.6697 82.2343 36.7236 82.4191 36.7852 82.6039C36.9777 83.2122 37.1779 83.8205 37.3935 84.4365C37.4012 84.4519 37.4012 84.4596 37.4089 84.475C37.432 84.5443 37.4628 84.6213 37.4859 84.6984C37.6784 85.2528 37.8863 85.8072 38.1019 86.3693C38.1789 86.5772 38.2636 86.7851 38.3483 86.9853C38.5254 87.4243 38.7025 87.8632 38.8874 88.3098C38.9798 88.5331 39.0722 88.7564 39.1723 88.9797C39.3725 89.4417 39.5804 89.9037 39.7883 90.3735C39.873 90.5583 39.95 90.7431 40.0424 90.9279C40.0732 90.9972 40.104 91.0588 40.1271 91.1204C40.3658 91.644 40.6199 92.1599 40.8817 92.6835C40.9202 92.7605 40.9587 92.8452 40.9972 92.9223C41.3283 93.5845 41.6671 94.2544 42.0213 94.9243C42.1291 95.1245 42.2447 95.3324 42.3525 95.5326C42.6066 96.0024 42.8607 96.4644 43.1225 96.9341C43.2611 97.1882 43.4074 97.4423 43.5537 97.6887C43.7077 97.9505 43.8463 98.2124 44.0003 98.4742C44.0773 98.6051 44.162 98.736 44.239 98.8746C44.4931 99.3058 44.7549 99.737 45.0168 100.168C45.217 100.492 45.4095 100.815 45.6097 101.131C45.8869 101.577 46.1718 102.016 46.4644 102.455C46.6646 102.763 46.8571 103.071 47.0651 103.379C47.3808 103.849 47.7042 104.319 48.0199 104.788C48.2124 105.066 48.3972 105.343 48.5897 105.62C48.9824 106.174 49.3828 106.737 49.7909 107.291C49.9141 107.46 50.0373 107.638 50.1605 107.807C50.1682 107.822 50.1837 107.838 50.1914 107.853C50.7535 108.608 51.3233 109.362 51.9085 110.117C52.0702 110.325 52.2397 110.533 52.4091 110.741C52.8326 111.28 53.2638 111.819 53.7027 112.358C53.9337 112.635 54.1647 112.912 54.3957 113.189C54.7807 113.651 55.1734 114.113 55.5739 114.575C55.828 114.868 56.0898 115.168 56.3516 115.461C56.7366 115.9 57.1293 116.339 57.522 116.77C57.7915 117.07 58.0687 117.363 58.3382 117.656C58.7387 118.087 59.1391 118.51 59.5472 118.934C59.8244 119.226 60.1016 119.511 60.3865 119.796C60.8101 120.227 61.2336 120.651 61.6648 121.082C61.9343 121.352 62.2038 121.621 62.481 121.891C62.9584 122.353 63.4435 122.807 63.9287 123.261C64.1674 123.485 64.3984 123.708 64.6371 123.931C65.3609 124.601 66.1002 125.263 66.8471 125.91C67.4092 126.403 67.979 126.881 68.5411 127.35C68.7336 127.512 68.9185 127.658 69.111 127.812C69.4883 128.12 69.8579 128.428 70.2352 128.729C70.4662 128.913 70.6895 129.09 70.9205 129.268C71.2516 129.529 71.5904 129.791 71.9216 130.045C72.1603 130.23 72.4067 130.407 72.6454 130.592C72.8918 130.777 73.1382 130.962 73.3769 131.146C73.4385 131.193 73.5001 131.231 73.5617 131.277C74.2239 131.762 74.8862 132.232 75.5407 132.687C75.5484 132.694 75.5561 132.702 75.5715 132.702C76.2183 133.149 76.8651 133.58 77.512 133.996C77.7199 134.126 77.9201 134.257 78.128 134.388C78.5823 134.681 79.0366 134.966 79.491 135.243C79.7143 135.382 79.9376 135.513 80.1609 135.651C80.6152 135.921 81.0772 136.19 81.5315 136.444C81.6702 136.521 81.8087 136.606 81.9473 136.683C82.0089 136.721 82.0783 136.752 82.1399 136.783C82.4248 136.945 82.7174 137.099 83.0023 137.245C83.2718 137.391 83.5413 137.538 83.8108 137.676C84.0957 137.823 84.3806 137.961 84.6579 138.108C84.9274 138.238 85.1969 138.377 85.4587 138.508C85.7359 138.647 86.0208 138.77 86.298 138.901C86.5675 139.024 86.8293 139.147 87.0988 139.27C87.376 139.393 87.6456 139.509 87.9228 139.624C88.1384 139.717 88.3463 139.809 88.5619 139.902C88.6158 139.925 88.662 139.94 88.7159 139.963C88.9469 140.056 89.1702 140.14 89.4012 140.233C89.6861 140.348 89.9787 140.456 90.2636 140.564C90.4947 140.649 90.7257 140.733 90.9567 140.81C91.2339 140.91 91.5111 141.011 91.7883 141.103C92.0193 141.18 92.2426 141.249 92.4736 141.326C92.7431 141.411 93.0126 141.496 93.2821 141.573C93.5132 141.642 93.7365 141.704 93.9598 141.765C94.1292 141.811 94.2986 141.865 94.4603 141.904C94.5527 141.927 94.6451 141.95 94.7375 141.973C94.9762 142.035 95.2226 142.089 95.4613 142.15C95.7077 142.212 95.9542 142.266 96.2006 142.32C96.4393 142.373 96.6703 142.412 96.909 142.458C97.1554 142.504 97.3941 142.551 97.6328 142.589C97.8638 142.628 98.0949 142.666 98.3182 142.697C98.5569 142.728 98.7879 142.766 99.0266 142.797C99.2499 142.828 99.4732 142.851 99.6965 142.866C99.8274 142.882 99.966 142.897 100.097 142.913C100.182 142.92 100.259 142.92 100.343 142.928C100.644 142.951 100.944 142.966 101.244 142.974C101.429 142.982 101.606 142.99 101.783 142.997C102.107 143.005 102.43 142.997 102.746 142.99C102.884 142.99 103.031 142.99 103.169 142.982C103.624 142.959 104.07 142.928 104.509 142.882C104.548 142.874 104.586 142.866 104.632 142.866C105.025 142.82 105.418 142.766 105.795 142.697C105.826 142.689 105.857 142.689 105.888 142.682C106.18 142.628 106.465 142.566 106.75 142.497C106.788 142.489 106.819 142.481 106.858 142.474C107.197 142.389 107.535 142.296 107.874 142.189Z" fill="url(#paint5_linear_1_583)"/>
<path opacity="0.7" d="M82.8945 124.57C80.3457 122.76 77.7738 120.743 75.2019 118.495C72.8841 116.477 70.6664 114.359 68.5412 112.18L48.8516 48.8069C51.4004 46.9281 54.6883 46.0117 58.4923 46.0117L82.8945 124.57ZM79.106 52.557C78.2281 52.0641 77.3657 51.6021 76.5033 51.1555L102.361 134.38C103.154 134.596 103.939 134.796 104.709 134.958L79.106 52.557ZM91.2185 129.783C93.5671 131.046 95.8618 132.109 98.0795 132.963L72.014 49.0841C69.7501 48.1524 67.5632 47.4363 65.4687 46.9281L91.2185 129.783ZM98.2104 67.1644C96.7858 65.7784 95.3228 64.4308 93.8135 63.1141C92.5815 62.0437 91.3494 61.0273 90.1251 60.0493L113.534 135.381C115.505 135.096 117.299 134.511 118.863 133.626L98.2104 67.1644Z" fill="url(#paint6_linear_1_583)"/>
</g>
<defs>
<filter id="filter0_d_1_583" x="-15.3594" y="0" width="191.363" height="197" filterUnits="userSpaceOnUse" color-interpolation-filters="sRGB">
<feFlood flood-opacity="0" result="BackgroundImageFix"/>
<feColorMatrix in="SourceAlpha" type="matrix" values="0 0 0 0 0 0 0 0 0 0 0 0 0 0 0 0 0 0 127 0" result="hardAlpha"/>
<feOffset dy="4"/>
<feGaussianBlur stdDeviation="25"/>
<feColorMatrix type="matrix" values="0 0 0 0 0.0666666 0 0 0 0 0.0941176 0 0 0 0 0.286275 0 0 0 0.5 0"/>
<feBlend mode="normal" in2="BackgroundImageFix" result="effect1_dropShadow_1_583"/>
<feBlend mode="normal" in="SourceGraphic" in2="effect1_dropShadow_1_583" result="shape"/>
</filter>
<linearGradient id="paint0_linear_1_583" x1="44.6026" y1="54.5749" x2="122.512" y2="125.321" gradientUnits="userSpaceOnUse">
<stop offset="0.0317" stop-color="#FCE878"/>
<stop offset="0.0527" stop-color="#FCE676"/>
<stop offset="0.6976" stop-color="#FEB432"/>
<stop offset="1" stop-color="#FFA018"/>
</linearGradient>
<linearGradient id="paint1_linear_1_583" x1="108.477" y1="110.975" x2="44.8421" y2="57.4419" gradientUnits="userSpaceOnUse">
<stop stop-color="#FFE6B9" stop-opacity="0"/>
<stop offset="0.3821" stop-color="#FFF3DE" stop-opacity="0.4239"/>
<stop offset="0.7037" stop-color="#FFFCF6" stop-opacity="0.7807"/>
<stop offset="0.9014" stop-color="white"/>
</linearGradient>
<linearGradient id="paint2_linear_1_583" x1="46.7103" y1="56.9522" x2="122.757" y2="125.276" gradientUnits="userSpaceOnUse">
<stop offset="0.0431" stop-color="#FFA018"/>
<stop offset="0.9874" stop-color="#D36B18"/>
</linearGradient>
<linearGradient id="paint3_linear_1_583" x1="138.122" y1="130.241" x2="37.8297" y2="55.0676" gradientUnits="userSpaceOnUse">
<stop stop-color="#FFB817"/>
<stop offset="0.9893" stop-color="#FFFFBC"/>
</linearGradient>
<linearGradient id="paint4_linear_1_583" x1="138.122" y1="130.241" x2="37.8298" y2="55.0675" gradientUnits="userSpaceOnUse">
<stop stop-color="#FFE6B9" stop-opacity="0"/>
<stop offset="0.3821" stop-color="#FFF3DE" stop-opacity="0.4239"/>
<stop offset="0.7037" stop-color="#FFFCF6" stop-opacity="0.7807"/>
<stop offset="0.9014" stop-color="white"/>
</linearGradient>
<linearGradient id="paint5_linear_1_583" x1="31.4204" y1="62.3607" x2="111.771" y2="141.134" gradientUnits="userSpaceOnUse">
<stop offset="0.0394" stop-color="#FFC826"/>
<stop offset="0.1112" stop-color="#FFA018"/>
<stop offset="0.4264" stop-color="#F8771E"/>
<stop offset="0.5129" stop-color="#EC6D1A"/>
<stop offset="0.6677" stop-color="#CD510E"/>
<stop offset="0.721" stop-color="#C14609"/>
<stop offset="0.8348" stop-color="#C3480A"/>
<stop offset="0.8863" stop-color="#CA4E0D"/>
<stop offset="0.9252" stop-color="#D75A11"/>
<stop offset="0.9577" stop-color="#E96A18"/>
<stop offset="0.977" stop-color="#F8771E"/>
<stop offset="0.9864" stop-color="#F87A1E"/>
<stop offset="0.992" stop-color="#FA821C"/>
<stop offset="0.9967" stop-color="#FC901A"/>
<stop offset="1" stop-color="#FFA018"/>
</linearGradient>
<linearGradient id="paint6_linear_1_583" x1="99.148" y1="121.302" x2="57.6648" y2="38.133" gradientUnits="userSpaceOnUse">
<stop stop-color="#FFE6B9" stop-opacity="0"/>
<stop offset="1" stop-color="white"/>
</linearGradient>
</defs>
</svg>
