<svg width="43" height="56" viewBox="0 0 43 56" fill="none" xmlns="http://www.w3.org/2000/svg">
<path d="M27.8959 37.9544C32.2025 37.7824 33.1578 39.9636 33.062 41.7814C32.7351 39.8214 29.6288 38.6437 25.6001 40.0593C22.3772 41.1917 23.7761 45.4946 24.756 47.4909L23.5583 46.2931C19.5511 41.7633 19.1301 37.4368 19.4205 35.8398C19.8197 36.239 19.8596 37.189 21.3805 38.1264C22.2857 38.6843 21.7354 38.047 21.6774 37.9544C19.7174 34.8241 20.7635 32.7352 21.199 32.1182C20.8724 35.9293 22.5423 38.1682 27.8959 37.9544Z" fill="#FFC350"/>
<path d="M17.849 48.3829C10.2703 38.6264 15.8268 29.4735 19.529 27.332C12.3859 43.2733 27.924 52.1193 36.3084 53.8252C26.9279 57.7812 20.0495 50.7748 17.849 48.3829Z" fill="#FFC350"/>
<path d="M9.3346 43.7901C6.80837 30.375 15.2744 23.8913 19.3396 23.3468C6.44711 36.9362 15.7449 50.9658 24.3557 55.7495C14.3379 56.7078 10.2057 48.3997 9.3346 43.7901Z" fill="#FFC350"/>
<path d="M4.5134 30.0871C8.78185 21.376 17.0851 19.0174 20.0977 19.7434C4.33054 27.8448 6.94526 44.787 10.829 51.4292C2.20496 44.4603 1.40835 36.4239 4.5134 30.0871Z" fill="#FFC350"/>
<path d="M3.64121 20.6121C8.95499 15.7339 18.7768 17.0551 23.0234 18.3254C4.81721 17.8025 1.06417 32.0456 1.46343 39.2325C-0.0247173 35.0583 -1.67257 25.4903 3.64121 20.6121Z" fill="#FFC350"/>
<path d="M25.4114 22.3993C25.1572 22.3692 24.6873 21.9163 24.6525 21.9251C24.6176 21.9316 24.6346 21.9334 24.6659 21.96C25.9857 23.0794 27.1181 24.4927 28.8973 24.9152C29.7227 25.1112 31.0058 24.8477 31.8616 24.9152C32.0642 24.2401 31.4581 23.6817 31.1982 23.4434C30.0599 22.3993 27.8953 22.6107 25.6182 22.4204L25.4114 22.3993Z" fill="#FFC350"/>
<path d="M31.2988 19.524C30.9504 13.9489 24.5559 9.69571 14.7862 11.0154C7.94567 11.5312 4.44681 15.284 2.98771 18.4351C8.56282 13.644 14.8203 13.6803 17.2522 14.2973C13.5935 14.1231 8.80964 15.379 4.63592 18.1299C11.5097 14.2973 22.3782 16.3992 24.5559 17.5607C24.5559 16.5154 22.5877 15.2773 21.8255 14.8417C26.7908 14.9289 30.2099 17.9995 31.2988 19.524Z" fill="#FFC350"/>
<path d="M32.7156 19.8517C32.6285 17.4997 31.0619 16.2783 30.1545 15.1895C32.7674 16.2348 34.0951 17.928 34.5672 19.4162C35.5472 23.8806 38.0512 23.7717 40.7739 26.6028C42.9521 28.8677 41.9718 30.3777 41.2094 30.8495C41.4707 33.2886 40.8099 35.2777 40.4468 35.9673C41.2308 40.9326 36.4392 41.8584 34.0436 41.7495C34.6969 41.7132 36.5703 41.2375 38.0512 39.234C39.5321 37.2304 38.0875 35.0599 37.1801 34.2251C35.4379 35.8802 32.3164 35.568 30.9734 35.2051C31.8808 35.3503 34.2836 35.1833 36.6356 33.354C38.9876 31.5246 37.1801 29.6154 35.9823 28.8895C35.4596 27.0602 36.926 27.2562 37.7245 27.5828C39.641 28.8895 40.3379 28.9984 40.4468 28.8895C40.0112 26.9731 37.7245 25.3325 36.6356 24.7517C34.2836 23.8806 32.7156 20.786 32.7156 19.8517Z" fill="#FFC350"/>
<path d="M30.7852 5.8513L27.3289 11.5211C20.1453 7.56619 12.6052 9.87785 9.73307 11.528L6.2209 5.8513C15.9293 11.8562 18.4448 4.45248 18.4891 1.07496e-06C19.3549 11.0043 27.0472 8.48601 30.7852 5.8513Z" fill="#FFC350"/>
</svg>
