<svg width="167" height="24" viewBox="0 0 167 24" fill="none" xmlns="http://www.w3.org/2000/svg">
<path d="M0.316406 22.9839V0.281473H0.346716L11.9859 16.8006L10.6219 16.5278L22.2308 0.281473H22.2914V22.9839H19.1391V7.46502L19.321 9.07147L11.1978 20.6197H11.1372L2.83216 9.07147L3.37775 7.58626V22.9839H0.316406Z" fill="white"/>
<path d="M26.2223 22.9839L35.8913 0.0996094H36.0731L45.7421 22.9839H42.0746L35.0426 5.07051L37.3159 3.5853L29.3745 22.9839H26.2223Z" fill="white"/>
<path d="M66.1971 21.0441C65.894 21.3067 65.4697 21.5694 64.9241 21.8321C64.3785 22.0948 63.7622 22.3373 63.0751 22.5596C62.4083 22.7616 61.7213 22.9233 61.014 23.0445C60.3068 23.1658 59.64 23.2264 59.0136 23.2264C56.6696 23.2264 54.6388 22.7616 52.9212 21.8321C51.2036 20.8824 49.8699 19.5993 48.9202 17.9827C47.9907 16.3662 47.5259 14.5273 47.5259 12.4662C47.5259 10.587 47.8189 8.91992 48.4049 7.46502C49.0112 6.01013 49.8396 4.78761 50.8904 3.79747C51.9411 2.80733 53.1334 2.05968 54.467 1.55451C55.8209 1.02913 57.2556 0.766437 58.7711 0.766437C60.0845 0.766437 61.2969 0.917989 62.4083 1.22109C63.5197 1.5242 64.4896 1.90813 65.3181 2.37289L64.2572 5.31299C63.8531 5.07051 63.3479 4.84823 62.7417 4.64616C62.1557 4.42388 61.5394 4.25213 60.8928 4.13089C60.2664 4.00964 59.6905 3.94902 59.1651 3.94902C57.4677 3.94902 55.9926 4.28244 54.7398 4.94926C53.487 5.61609 52.517 6.56582 51.83 7.79844C51.143 9.03106 50.7995 10.4961 50.7995 12.1934C50.7995 13.7494 51.143 15.1234 51.83 16.3156C52.5373 17.4876 53.5072 18.4071 54.7398 19.0739C55.9926 19.7407 57.4374 20.0741 59.0742 20.0741C59.8016 20.0741 60.5089 20.0034 61.1959 19.862C61.9031 19.7205 62.4992 19.5083 62.9842 19.2254V15.1638H58.7105V12.1025H66.1971V21.0441Z" fill="white"/>
<path d="M90.8373 23.7417L73.8938 6.82851L74.8334 7.13161L74.894 22.9839H71.7115V0.311783H71.8327L88.564 17.225L87.8366 17.0431L87.7759 1.00892H90.9282V23.7417H90.8373Z" fill="white"/>
<path d="M94.8941 22.9839L104.563 0.0996094H104.745L114.414 22.9839H110.746L103.714 5.07051L105.988 3.5853L98.0464 22.9839H94.8941Z" fill="white"/>
<path d="M115.067 1.00892H129.707V4.07027H123.888V22.9839H120.705V4.07027H115.067V1.00892Z" fill="white"/>
<path d="M134.315 1.00892H148.713V4.07027H137.468V10.4051H147.5V13.4665H137.468V19.9226H149.137V22.9839H134.315V1.00892Z" fill="white"/>
<path d="M165.604 5.16144C164.836 4.7573 164.008 4.41378 163.118 4.13089C162.229 3.84799 161.371 3.70654 160.542 3.70654C159.39 3.70654 158.481 3.96923 157.814 4.49461C157.147 4.99978 156.814 5.70702 156.814 6.61633C156.814 7.24275 157.036 7.78833 157.481 8.25309C157.925 8.71785 158.501 9.12199 159.208 9.46551C159.916 9.80902 160.663 10.1323 161.451 10.4354C162.361 10.7587 163.24 11.173 164.088 11.6782C164.937 12.1631 165.634 12.8199 166.18 13.6483C166.725 14.4768 166.998 15.5882 166.998 16.9825C166.998 18.1343 166.705 19.185 166.119 20.1347C165.533 21.0845 164.695 21.8422 163.603 22.408C162.532 22.9536 161.239 23.2264 159.724 23.2264C158.309 23.2264 156.965 23.0041 155.692 22.5596C154.44 22.0948 153.359 21.5492 152.449 20.9228L153.874 18.4071C154.581 18.9526 155.45 19.4275 156.48 19.8316C157.511 20.2358 158.491 20.4378 159.421 20.4378C160.108 20.4378 160.774 20.3267 161.421 20.1044C162.068 19.862 162.603 19.4881 163.028 18.983C163.472 18.4778 163.694 17.811 163.694 16.9825C163.694 16.2954 163.502 15.7094 163.118 15.2245C162.735 14.7395 162.229 14.3253 161.603 13.9817C160.997 13.6382 160.34 13.3351 159.633 13.0724C158.946 12.8097 158.238 12.5269 157.511 12.2237C156.804 11.9004 156.147 11.5064 155.541 11.0416C154.955 10.5769 154.47 10.0111 154.086 9.34426C153.722 8.65723 153.54 7.82875 153.54 6.85882C153.54 5.66661 153.813 4.63606 154.359 3.76716C154.925 2.89826 155.703 2.21123 156.693 1.70606C157.683 1.20089 158.814 0.928092 160.087 0.887679C161.542 0.887679 162.815 1.06954 163.907 1.43327C164.998 1.77678 165.958 2.20113 166.786 2.7063L165.604 5.16144Z" fill="white"/>
</svg>
