<svg width="35" height="35" viewBox="0 0 35 35" fill="none" xmlns="http://www.w3.org/2000/svg">
<g style="mix-blend-mode:luminosity">
<path d="M34.5319 16.3241C34.5319 16.3141 34.5319 16.2941 34.5319 16.2841C34.5319 16.2041 34.5019 15.7341 34.4119 15.0241C34.4019 14.9641 34.3919 14.9041 34.3819 14.8341C34.3719 14.7441 34.3519 14.6541 34.3419 14.5641C33.9819 12.3041 33.1719 10.1641 32.0019 8.27414L31.9919 8.26414C31.8619 8.05414 31.7319 7.85414 31.6019 7.65414C30.9519 6.69414 30.2019 5.79414 29.3719 4.98414C28.9819 4.59414 28.5019 4.17414 28.0819 3.84414C27.8019 3.62414 27.5119 3.40414 27.2219 3.19414C27.2119 3.18414 27.1919 3.17414 27.1819 3.16414L27.1419 3.13414C27.0919 3.09414 27.0419 3.06414 26.9919 3.02414C26.8019 2.89414 26.5919 2.75414 26.3719 2.62414C26.3619 2.61414 26.3519 2.61414 26.3419 2.60414C26.2319 2.53414 26.1219 2.47414 26.0019 2.40414C25.9519 2.37414 25.8919 2.34414 25.8419 2.31414C25.7919 2.28414 25.7519 2.26414 25.7019 2.23414C25.6619 2.21414 25.6319 2.19414 25.5919 2.17414C24.9119 1.80414 24.2019 1.47414 23.4719 1.19414C23.2819 1.12414 23.1319 1.06414 23.0519 1.03414L22.9219 0.984142L22.7919 0.934143C22.7819 0.934143 22.7819 0.934141 22.7719 0.924141L22.7419 0.914142C22.6819 0.894142 22.5919 0.864143 22.5319 0.844143L22.5019 0.83414C22.4919 0.83414 22.4819 0.824142 22.4719 0.824142L22.3219 0.774143C22.2619 0.754143 22.1819 0.734142 22.1319 0.714142L21.9619 0.664142C21.9319 0.654142 21.9019 0.644144 21.8719 0.634144C21.8619 0.634144 21.8519 0.624141 21.8419 0.624141C21.8319 0.624141 21.8219 0.614143 21.8119 0.614143C21.7919 0.604143 21.7719 0.604141 21.7619 0.604141L21.5719 0.554142C21.5219 0.544142 21.4619 0.524141 21.4119 0.514141C21.3619 0.504141 21.3119 0.494144 21.2619 0.474144H21.2519C21.2219 0.464144 21.1919 0.464143 21.1619 0.454143C21.1019 0.444143 21.0319 0.424142 20.9819 0.414142L20.8519 0.384144C20.7919 0.374144 20.7319 0.364143 20.6819 0.344143C20.6719 0.344143 20.6619 0.34414 20.6519 0.334141C20.6119 0.324141 20.5619 0.314142 20.5219 0.304142L20.4419 0.294143L20.3519 0.274143C20.3419 0.274143 20.3419 0.274143 20.3319 0.274143L20.3019 0.264141C20.2819 0.264141 20.2619 0.254142 20.2519 0.254142C20.2019 0.244142 20.1619 0.234142 20.1119 0.234142C20.0819 0.224142 20.0519 0.224142 20.0219 0.214142C19.9719 0.204142 19.9219 0.194141 19.8619 0.194141L19.7319 0.174141C19.7119 0.174141 19.6819 0.164142 19.6519 0.164142C19.6119 0.154142 19.5719 0.154142 19.5319 0.144142C19.4919 0.134142 19.4519 0.134141 19.4119 0.124141C19.3519 0.114141 19.2819 0.104141 19.2219 0.104141L19.0419 0.0841405C19.0219 0.0841405 19.0019 0.0841422 18.9819 0.0741422H18.9719C18.9219 0.0741422 18.8619 0.0641439 18.8119 0.0641439C18.7319 0.0541439 18.6519 0.0541434 18.5719 0.0441434C18.5119 0.0441434 18.4519 0.0341413 18.4019 0.0341413C18.3419 0.0341413 18.2819 0.0241429 18.2119 0.0241429C18.1519 0.0241429 18.0819 0.0141408 18.0219 0.0141408C17.9819 0.0141408 17.9419 0.0141408 17.9019 0.0141408L17.7919 0.00414248C17.7619 0.00414248 17.7419 0.00414248 17.7119 0.00414248C17.6819 0.00414248 17.6519 0.00414248 17.6219 0.00414248C17.2719 -0.00585752 16.9319 0.0041408 16.5819 0.0141408C16.5019 0.0141408 16.4319 0.0241429 16.3619 0.0241429C16.2819 0.0241429 16.2119 0.0341413 16.1319 0.0341413C16.0819 0.0341413 16.0319 0.0441434 15.9919 0.0441434C15.8819 0.0541434 15.7719 0.0641422 15.6619 0.0741422C15.6219 0.0741422 15.5819 0.0841405 15.5419 0.0841405C15.3819 0.104141 15.2319 0.114144 15.0819 0.134144C15.0119 0.144144 14.9419 0.154142 14.8719 0.164142C14.8719 0.164142 14.8819 0.164142 14.8919 0.164142C14.8819 0.164142 14.8819 0.164142 14.8719 0.164142C14.8619 0.164142 14.8419 0.164141 14.8319 0.174141C14.7119 0.194141 14.6119 0.204144 14.5019 0.224144C14.4219 0.234144 14.3319 0.254141 14.2519 0.264141C14.0619 0.294141 13.9119 0.324143 13.8119 0.344143C13.3119 0.444143 12.8219 0.574142 12.3319 0.714142C12.0419 0.794142 11.7819 0.884144 11.4619 0.994144C10.1319 1.47414 8.85192 2.11414 7.66192 2.91414C7.54192 2.99414 7.42193 3.07414 7.31193 3.15414C7.29193 3.16414 7.28193 3.17414 7.26193 3.18414C7.06193 3.32414 6.86192 3.47414 6.66192 3.63414C6.64192 3.64414 6.63194 3.65414 6.61194 3.67414L6.59193 3.68414C6.59193 3.68414 6.58193 3.69414 6.57193 3.69414C6.56193 3.70414 6.55192 3.70414 6.55192 3.71414C6.54192 3.71414 6.54193 3.72414 6.53193 3.72414C6.48193 3.76414 6.42193 3.81414 6.37193 3.85414C6.26193 3.94414 6.16193 4.03414 6.06193 4.11414C6.00193 4.16414 5.95193 4.21414 5.89193 4.26414C5.77193 4.36414 5.67193 4.46414 5.56193 4.55414C5.56193 4.55414 5.55193 4.56414 5.54193 4.56414L5.53193 4.57414C5.51193 4.59414 5.48193 4.61414 5.46193 4.64414C4.92193 5.14414 4.60194 5.50414 4.58194 5.53414C4.41194 5.71414 4.25193 5.90414 4.09193 6.09414C3.98193 6.22414 3.86193 6.37414 3.74193 6.52414C3.73193 6.53414 3.72193 6.54414 3.71193 6.55414L3.69192 6.57414C3.45192 6.87414 3.20193 7.22414 2.92193 7.63414L2.91192 7.64414C2.91192 7.64414 2.91193 7.65414 2.90193 7.65414C2.90193 7.66414 2.89193 7.66414 2.89193 7.67414C2.76193 7.86414 2.63194 8.07414 2.50194 8.29414C2.39194 8.48414 2.27193 8.67414 2.18193 8.83414L1.86194 9.47414C1.75194 9.68414 1.65193 9.88414 1.56193 10.0641C1.39193 10.4141 1.20192 10.8841 1.02192 11.3841V11.3941C0.871925 11.8241 0.721926 12.2841 0.601926 12.7241V12.7441C0.601926 12.7541 0.601926 12.7541 0.601926 12.7641C0.441926 13.3341 0.32193 13.8841 0.26193 14.3041C0.03193 15.9041 0.0219355 16.0341 0.00193547 17.0941C-0.0180645 18.4241 0.121923 19.3741 0.191923 19.8341C0.381923 21.1541 0.701933 22.1541 0.811933 22.4841C1.18193 23.6541 1.51194 24.3441 1.83194 25.0041C2.03194 25.4141 2.18193 25.7041 2.38193 26.0241C2.62193 26.4241 2.88193 26.8241 3.15193 27.2141C3.18193 27.2641 3.21194 27.3041 3.25194 27.3541C3.52194 27.7641 3.93192 28.2741 4.27192 28.6341C4.52192 28.9041 4.84193 29.2641 5.10193 29.5241C5.36193 29.7841 5.70193 30.1141 5.98193 30.3441C6.29193 30.6141 6.41193 30.7241 6.70193 30.9341C7.05193 31.2141 7.41192 31.4641 7.77192 31.7041C7.89192 31.7841 8.00193 31.8541 8.12193 31.9341C8.26193 32.0241 8.40192 32.1041 8.52192 32.1741C8.59192 32.2141 8.68193 32.2641 8.78193 32.3241C8.80193 32.3341 8.81194 32.3441 8.83194 32.3541C8.94194 32.4141 9.07193 32.4841 9.21193 32.5541C9.24193 32.5741 9.27192 32.5841 9.30192 32.6041C9.72192 32.8241 10.2519 33.0741 10.8319 33.3141C10.9619 33.3641 11.1319 33.4341 11.3419 33.5141C11.4019 33.5341 11.4619 33.5641 11.5119 33.5841L11.8219 33.6941C11.8819 33.7141 11.9719 33.7441 12.0319 33.7641L12.1119 33.7841C12.1219 33.7841 12.1219 33.7841 12.1319 33.7841L12.2519 33.8241C12.3119 33.8441 12.3919 33.8641 12.4419 33.8841L12.6319 33.9341C12.6419 33.9341 12.6419 33.9341 12.6519 33.9341C13.3919 34.1441 14.1019 34.2941 14.7819 34.3841L14.8419 34.3941C14.9019 34.4041 14.9619 34.4141 15.0319 34.4241C15.0419 34.4241 15.0419 34.4241 15.0519 34.4241C15.1119 34.4341 15.1719 34.4441 15.2219 34.4441L15.6019 34.4841C15.7719 34.5041 16.0019 34.5141 16.1719 34.5341C16.3319 34.5441 16.5219 34.5541 16.7119 34.5641C16.8019 34.5641 16.8919 34.5741 16.9719 34.5741C17.2119 34.5741 17.5319 34.5741 17.7619 34.5741C18.0019 34.5741 18.3319 34.5441 18.5719 34.5341C19.0919 34.4841 19.7819 34.4041 20.2919 34.3141C20.6919 34.2441 21.2219 34.1341 21.6119 34.0241C21.7119 33.9941 21.8119 33.9641 21.9219 33.9341C22.2319 33.8441 22.5519 33.7441 22.8119 33.6641L23.1219 33.5441C23.3719 33.4541 23.6219 33.3641 23.8619 33.2641L23.9819 33.2141C24.2719 33.1041 24.6219 32.9341 24.9319 32.7741C25.0619 32.7041 25.2019 32.6441 25.3319 32.5741C25.6919 32.3941 26.1319 32.1441 26.4519 31.9341C26.4619 31.9241 26.4719 31.9141 26.4819 31.9141C26.7819 31.7241 27.0719 31.5341 27.3519 31.3241C27.4119 31.2841 27.4819 31.2341 27.5319 31.1941L27.8419 30.9441C27.9219 30.8741 28.0119 30.8141 28.0919 30.7441L28.5619 30.3641C28.7419 30.2241 29.0619 29.9341 29.5419 29.4541C29.5519 29.4441 29.5619 29.4341 29.5619 29.4341L29.6119 29.3841C29.8619 29.1241 30.1419 28.8241 30.4719 28.4541C30.4819 28.4441 30.4819 28.4341 30.4919 28.4241C30.8119 28.0541 31.3519 27.3941 31.9319 26.4541C31.9319 26.4441 31.9419 26.4341 31.9419 26.4341C32.0719 26.2241 32.2119 25.9941 32.3419 25.7441C32.4019 25.6441 32.4519 25.5341 32.5119 25.4241C32.5919 25.2741 32.6719 25.1341 32.7319 24.9941C32.7519 24.9541 32.7719 24.9041 32.7919 24.8641C32.9019 24.6341 33.0119 24.3941 33.1219 24.1441C33.2719 23.8041 33.4119 23.4641 33.5119 23.1641C33.6919 22.6541 33.8619 22.1241 34.0119 21.5541C34.1019 21.2041 34.1819 20.8641 34.2419 20.5341C34.3119 20.1841 34.3619 19.8241 34.4119 19.4541C34.4219 19.3741 34.4319 19.2841 34.4419 19.2041C34.5019 18.7041 34.5319 18.1941 34.5419 17.6641C34.5419 17.6441 34.5419 17.6241 34.5419 17.6041V17.5641C34.5619 17.1841 34.5619 16.7641 34.5319 16.3241Z" fill="url(#paint0_radial_1_592)"/>
</g>
<defs>
<radialGradient id="paint0_radial_1_592" cx="0" cy="0" r="1" gradientUnits="userSpaceOnUse" gradientTransform="translate(16.7742 19.393) rotate(-0.355229) scale(19.0225 19.0225)">
<stop offset="0.6517" stop-color="#FB9018"/>
<stop offset="0.7401" stop-color="#FB931B"/>
<stop offset="0.8094" stop-color="#FB9C25"/>
<stop offset="0.8723" stop-color="#FBAB36"/>
<stop offset="0.9313" stop-color="#FBC14D"/>
<stop offset="0.9872" stop-color="#FBDD6B"/>
<stop offset="1" stop-color="#FBE473"/>
</radialGradient>
</defs>
</svg>
