<svg width="67" height="71" viewBox="0 0 67 71" fill="none" xmlns="http://www.w3.org/2000/svg">
<path d="M46.566 5.7554C46.566 5.7454 46.566 5.7354 46.556 5.7354C46.546 5.7054 46.5359 5.6754 46.5259 5.6454C46.5159 5.6154 46.506 5.58539 46.496 5.55539C46.486 5.52539 46.4659 5.5054 46.4559 5.4754C46.4559 5.4754 46.4559 5.47539 46.4559 5.46539C46.4559 5.46539 46.4559 5.4654 46.4559 5.4554C46.4459 5.4354 46.436 5.4154 46.416 5.3954C46.396 5.3754 46.386 5.34539 46.366 5.32539C46.346 5.30539 46.326 5.2854 46.306 5.2654C46.296 5.2554 46.2859 5.2454 46.2759 5.2354L41.0859 0.275391C41.1559 0.335391 41.206 0.415392 41.256 0.495392C41.256 0.495392 41.256 0.495402 41.256 0.505402C41.306 0.595402 41.346 0.685395 41.366 0.795395L44.796 14.6854L49.986 19.6454L46.566 5.7554Z" fill="url(#paint0_linear_1_601)"/>
<path d="M21.3703 53.4854L2.67029 64.8454C2.49029 64.9554 2.32027 65.0454 2.15027 65.1154C2.14027 65.1154 2.14031 65.1254 2.13031 65.1254C1.97031 65.1954 1.81028 65.2454 1.66028 65.2854C1.08028 65.4254 0.620313 65.3354 0.320312 65.0554L5.51031 70.0154C5.80031 70.2954 6.27028 70.3854 6.85028 70.2454C6.94028 70.2254 7.03031 70.1954 7.13031 70.1654C7.19031 70.1454 7.26026 70.1154 7.33026 70.0854C7.34026 70.0854 7.34028 70.0754 7.35028 70.0754C7.36028 70.0754 7.3603 70.0754 7.3703 70.0654C7.4303 70.0354 7.5003 70.0054 7.5603 69.9754C7.6203 69.9454 7.67029 69.9154 7.73029 69.8854C7.78029 69.8554 7.83031 69.8254 7.88031 69.7954L26.5803 58.4354L21.3703 53.4854Z" fill="url(#paint1_linear_1_601)"/>
<path d="M66.9088 20.875C66.9088 20.845 66.9088 20.815 66.9188 20.785C66.9188 20.735 66.9188 20.695 66.9188 20.655C66.9188 20.615 66.9188 20.575 66.9088 20.535C66.9088 20.515 66.8987 20.495 66.8987 20.485C66.8987 20.475 66.8987 20.475 66.8987 20.465C66.8987 20.455 66.8987 20.435 66.8887 20.425C66.8787 20.395 66.8788 20.355 66.8688 20.325C66.8588 20.295 66.8487 20.265 66.8387 20.235C66.8287 20.205 66.8188 20.175 66.8088 20.155C66.8088 20.145 66.7988 20.135 66.7988 20.125V20.115C66.7888 20.105 66.7887 20.085 66.7787 20.075C66.7687 20.045 66.7488 20.025 66.7388 20.005C66.7188 19.985 66.7088 19.955 66.6888 19.935C66.6688 19.915 66.6488 19.895 66.6288 19.865C66.6188 19.855 66.6088 19.845 66.5988 19.835L61.4088 14.875C61.4888 14.955 61.5588 15.045 61.6088 15.155V15.165C61.6588 15.265 61.6887 15.385 61.7087 15.505C61.7087 15.515 61.7087 15.515 61.7087 15.525C61.7287 15.645 61.7288 15.775 61.7188 15.915C61.7188 15.925 61.7188 15.935 61.7188 15.945C61.7087 16.075 61.6787 16.215 61.6487 16.355C61.6387 16.375 61.6387 16.395 61.6387 16.415C61.6187 16.495 61.5788 16.585 61.5488 16.675C61.5188 16.755 61.4987 16.835 61.4587 16.925C61.4187 17.005 61.3687 17.095 61.3287 17.185C61.2887 17.275 61.2488 17.355 61.1888 17.445C61.0888 17.605 60.9788 17.765 60.8588 17.925C60.8588 17.935 60.8488 17.935 60.8488 17.945C60.7188 18.115 60.5688 18.285 60.4088 18.455L43.9688 35.355L49.1588 40.315L65.5988 23.415C65.6088 23.405 65.6088 23.405 65.6188 23.395C65.6588 23.355 65.6988 23.315 65.7388 23.275C65.7788 23.235 65.8088 23.195 65.8488 23.155C65.8888 23.105 65.9287 23.065 65.9688 23.015C65.9988 22.985 66.0188 22.955 66.0488 22.915C66.0488 22.905 66.0588 22.905 66.0588 22.895C66.0688 22.885 66.0787 22.875 66.0787 22.865C66.1187 22.805 66.1687 22.745 66.2087 22.685C66.2687 22.605 66.3188 22.525 66.3688 22.445C66.3788 22.435 66.3787 22.425 66.3887 22.415C66.4387 22.325 66.4787 22.245 66.5287 22.165C66.5787 22.075 66.6288 21.995 66.6588 21.905C66.6988 21.825 66.7188 21.745 66.7488 21.655C66.7788 21.585 66.8087 21.505 66.8287 21.435C66.8287 21.425 66.8387 21.405 66.8387 21.395C66.8487 21.375 66.8488 21.355 66.8488 21.335C66.8588 21.275 66.8787 21.225 66.8887 21.165C66.8987 21.095 66.9088 21.035 66.9188 20.975C66.9188 20.955 66.9188 20.945 66.9188 20.925C66.9088 20.885 66.9088 20.875 66.9088 20.875Z" fill="url(#paint2_linear_1_601)"/>
<path d="M43.955 35.3252L39.175 53.5552C39.135 53.7052 39.075 53.8452 39.015 53.9852C38.995 54.0352 38.985 54.0852 38.965 54.1352C38.885 54.3152 38.785 54.4952 38.675 54.6752L38.665 54.6852C38.555 54.8652 38.435 55.0352 38.295 55.1952C38.155 55.3652 38.015 55.5252 37.865 55.6752C37.715 55.8252 37.5549 55.9652 37.3849 56.0952C37.2249 56.2252 37.0549 56.3452 36.8849 56.4452C36.8849 56.4452 36.885 56.4452 36.875 56.4452C36.705 56.5452 36.535 56.6452 36.365 56.7152C36.195 56.7952 36.025 56.8452 35.855 56.8952C35.545 56.9752 35.245 56.9852 34.975 56.9152L21.375 53.4652L26.565 58.4252L40.165 61.8752C40.435 61.9452 40.725 61.9252 41.045 61.8552C41.135 61.8352 41.225 61.8052 41.315 61.7752C41.395 61.7452 41.475 61.7152 41.555 61.6852C41.615 61.6552 41.675 61.6252 41.735 61.5952C41.795 61.5652 41.845 61.5352 41.905 61.5052C41.955 61.4752 42.005 61.4452 42.055 61.4152C42.055 61.4152 42.065 61.4152 42.065 61.4052C42.065 61.4052 42.065 61.4052 42.075 61.4052C42.115 61.3852 42.155 61.3552 42.195 61.3252C42.235 61.2952 42.285 61.2652 42.325 61.2352C42.365 61.2052 42.415 61.1752 42.455 61.1452C42.495 61.1152 42.535 61.0852 42.575 61.0552C42.615 61.0252 42.655 60.9852 42.695 60.9552C42.735 60.9252 42.775 60.8852 42.815 60.8552C42.855 60.8252 42.895 60.7852 42.935 60.7552C42.975 60.7152 43.015 60.6852 43.045 60.6452L43.055 60.6352C43.085 60.6052 43.125 60.5652 43.155 60.5352C43.195 60.4952 43.225 60.4552 43.265 60.4152C43.305 60.3752 43.335 60.3352 43.375 60.2952C43.415 60.2552 43.445 60.2052 43.485 60.1652C43.485 60.1652 43.485 60.1652 43.485 60.1552C43.485 60.1552 43.485 60.1552 43.485 60.1452C43.525 60.1052 43.555 60.0552 43.585 60.0152C43.625 59.9552 43.665 59.9052 43.705 59.8452C43.755 59.7752 43.795 59.7052 43.845 59.6352L43.855 59.6252C43.855 59.6252 43.855 59.6152 43.865 59.6152C43.975 59.4452 44.065 59.2652 44.145 59.0852C44.165 59.0352 44.185 58.9852 44.205 58.9352C44.255 58.8152 44.305 58.6852 44.345 58.5652C44.355 58.5452 44.355 58.5252 44.365 58.5052L49.145 40.2752L43.955 35.3252Z" fill="url(#paint3_linear_1_601)"/>
<path d="M60.5579 14.5951L44.8179 14.6951L41.3878 0.805065C41.2078 0.0950652 40.5579 -0.124925 39.7579 0.065075C38.9579 0.255075 38.0278 0.865065 37.2778 1.80507L22.7678 20.0951L4.20782 28.4051C2.28782 29.2651 0.807872 31.7151 1.50787 32.8751L8.28784 44.0851L0.247863 63.1051C-0.422137 64.6951 0.337845 65.6251 1.66785 65.3051C1.97785 65.2251 2.31786 65.0851 2.68787 64.8651L21.3878 53.5051L34.9879 56.9551C35.2579 57.0251 35.5479 57.0051 35.8679 56.9351C37.2079 56.6051 38.7979 55.0951 39.1979 53.5751L43.9778 35.3451L60.4178 18.4451C62.0878 16.6951 62.1779 14.5851 60.5579 14.5951Z" fill="url(#paint4_linear_1_601)"/>
<path opacity="0.7" d="M60.5579 14.5951L44.8179 14.6951L41.3878 0.805065C41.2078 0.0950652 40.5579 -0.124925 39.7579 0.065075C38.9579 0.255075 38.0278 0.865065 37.2778 1.80507L22.7678 20.0951L4.20782 28.4051C2.28782 29.2651 0.807872 31.7151 1.50787 32.8751L8.28784 44.0851L0.247863 63.1051C-0.422137 64.6951 0.337845 65.6251 1.66785 65.3051C1.97785 65.2251 2.31786 65.0851 2.68787 64.8651L21.3878 53.5051L34.9879 56.9551C35.2579 57.0251 35.5479 57.0051 35.8679 56.9351C37.2079 56.6051 38.7979 55.0951 39.1979 53.5751L43.9778 35.3451L60.4178 18.4451C62.0878 16.6951 62.1779 14.5851 60.5579 14.5951ZM60.1678 18.2151L43.6678 35.1751L38.8679 53.4851C38.5079 54.8351 37.0678 56.2951 35.7678 56.6151C35.6178 56.6551 35.4678 56.6751 35.3378 56.6751C35.2378 56.6751 35.1379 56.6651 35.0479 56.6451L21.3179 53.1651L2.50787 64.5951C2.17787 64.7951 1.86782 64.9351 1.57782 65.0051C1.42782 65.0451 1.28783 65.0651 1.14783 65.0651C0.927826 65.0651 0.617875 65.0051 0.447875 64.7451C0.237875 64.4251 0.267831 63.8751 0.527831 63.2451L8.63782 44.0651L1.77783 32.7151C1.61783 32.4451 1.60787 32.0351 1.75787 31.5551C2.10787 30.4151 3.19783 29.2251 4.33783 28.7151L22.9678 20.3751L37.5278 2.02507C38.1878 1.19507 39.0478 0.585077 39.8278 0.395077C39.9878 0.355077 40.1378 0.335064 40.2778 0.335064C40.7078 0.335064 40.9779 0.525077 41.0679 0.895077L44.5579 15.0251L60.5479 14.9251C60.9379 14.9251 61.1979 15.0651 61.3079 15.3451C61.5679 15.9151 61.2578 17.0951 60.1678 18.2151Z" fill="url(#paint5_linear_1_601)"/>
<defs>
<linearGradient id="paint0_linear_1_601" x1="48.6781" y1="5.46209" x2="40.859" y2="16.6998" gradientUnits="userSpaceOnUse">
<stop offset="0.0394" stop-color="#FFC826"/>
<stop offset="0.1112" stop-color="#FFA018"/>
<stop offset="0.4264" stop-color="#F8771E"/>
<stop offset="0.5129" stop-color="#EC6D1A"/>
<stop offset="0.6677" stop-color="#CD510E"/>
<stop offset="0.721" stop-color="#C14609"/>
</linearGradient>
<linearGradient id="paint1_linear_1_601" x1="-7.76537" y1="78.7405" x2="40.4935" y2="40.0716" gradientUnits="userSpaceOnUse">
<stop offset="0.2285" stop-color="#FFC826"/>
<stop offset="0.294" stop-color="#FFA018"/>
<stop offset="0.4264" stop-color="#F8771E"/>
<stop offset="0.5129" stop-color="#EC6D1A"/>
<stop offset="0.6677" stop-color="#CD510E"/>
<stop offset="0.721" stop-color="#C14609"/>
</linearGradient>
<linearGradient id="paint2_linear_1_601" x1="70.6589" y1="10.793" x2="44.3255" y2="41.4727" gradientUnits="userSpaceOnUse">
<stop offset="0.0394" stop-color="#FFC826"/>
<stop offset="0.2586" stop-color="#FFA018"/>
<stop offset="0.3314" stop-color="#F8771E"/>
<stop offset="0.4458" stop-color="#EC6D1A"/>
<stop offset="0.6505" stop-color="#CD510E"/>
<stop offset="0.721" stop-color="#C14609"/>
<stop offset="0.8348" stop-color="#C3480A"/>
<stop offset="0.8863" stop-color="#CA4E0D"/>
<stop offset="0.9252" stop-color="#D75A11"/>
<stop offset="0.9577" stop-color="#E96A18"/>
<stop offset="0.977" stop-color="#F8771E"/>
<stop offset="0.9864" stop-color="#F87A1E"/>
<stop offset="0.992" stop-color="#FA821C"/>
<stop offset="0.9967" stop-color="#FC901A"/>
<stop offset="1" stop-color="#FFA018"/>
</linearGradient>
<linearGradient id="paint3_linear_1_601" x1="57.3352" y1="30.8003" x2="28.9566" y2="60.4574" gradientUnits="userSpaceOnUse">
<stop offset="0.0394" stop-color="#FFC826"/>
<stop offset="0.1112" stop-color="#FFA018"/>
<stop offset="0.272" stop-color="#F8771E"/>
<stop offset="0.3282" stop-color="#EF6F1B"/>
<stop offset="0.567" stop-color="#CE510E"/>
<stop offset="0.6973" stop-color="#C14609"/>
<stop offset="0.7136" stop-color="#C64E0A"/>
<stop offset="0.7382" stop-color="#D4620E"/>
<stop offset="0.768" stop-color="#EC8413"/>
<stop offset="0.7888" stop-color="#FFA018"/>
<stop offset="0.7904" stop-color="#FE9E18"/>
<stop offset="0.8278" stop-color="#E87F12"/>
<stop offset="0.8666" stop-color="#D7660E"/>
<stop offset="0.907" stop-color="#CB540B"/>
<stop offset="0.95" stop-color="#C3490A"/>
<stop offset="1" stop-color="#C14609"/>
</linearGradient>
<linearGradient id="paint4_linear_1_601" x1="11.2051" y1="22.1907" x2="43.4188" y2="51.3364" gradientUnits="userSpaceOnUse">
<stop offset="0.0317" stop-color="#FCE878"/>
<stop offset="0.0527" stop-color="#FCE676"/>
<stop offset="0.6976" stop-color="#FEB432"/>
<stop offset="1" stop-color="#FFA018"/>
</linearGradient>
<linearGradient id="paint5_linear_1_601" x1="44.7636" y1="53.6553" x2="12.8055" y2="22.2086" gradientUnits="userSpaceOnUse">
<stop stop-color="#FFE6B9" stop-opacity="0"/>
<stop offset="0.3821" stop-color="#FFF3DE" stop-opacity="0.4239"/>
<stop offset="0.7037" stop-color="#FFFCF6" stop-opacity="0.7807"/>
<stop offset="0.9014" stop-color="white"/>
</linearGradient>
</defs>
</svg>
