<svg width="86" height="85" viewBox="0 0 86 85" fill="none" xmlns="http://www.w3.org/2000/svg">
<path d="M56.3008 71.2863V80.9404C56.3008 82.319 57.7764 83.195 58.9867 82.5348L65.3997 79.0368C65.953 78.735 66.6232 78.7417 67.1705 79.0544L73.1078 82.4471C74.3186 83.139 75.8251 82.2647 75.8251 80.8702V64.0215" stroke="white" stroke-width="3.63243" stroke-linejoin="round"/>
<path d="M59.0289 37.2324C59.0289 57.7953 49.881 74.4649 38.5965 74.4649C27.312 74.4649 18.1641 57.7953 18.1641 37.2324C18.1641 16.6695 27.312 0 38.5965 0C49.881 0 59.0289 16.6695 59.0289 37.2324ZM21.7539 37.2324C21.7539 54.1826 29.2946 67.9234 38.5965 67.9234C47.8984 67.9234 55.4391 54.1826 55.4391 37.2324C55.4391 20.2823 47.8984 6.5415 38.5965 6.5415C29.2946 6.5415 21.7539 20.2823 21.7539 37.2324Z" fill="#7072AE"/>
<line x1="4.53906" y1="24.0647" x2="69.0147" y2="24.0647" stroke="#7072AE" stroke-width="4.54054"/>
<line x1="4.53906" y1="50.3997" x2="69.0147" y2="50.3997" stroke="#7072AE" stroke-width="4.54054"/>
<path d="M74.4649 37.2324C74.4649 57.7953 57.7953 74.4649 37.2324 74.4649C16.6695 74.4649 0 57.7953 0 37.2324C0 16.6695 16.6695 0 37.2324 0C57.7953 0 74.4649 16.6695 74.4649 37.2324ZM4.83274 37.2324C4.83274 55.1263 19.3386 69.6321 37.2324 69.6321C55.1263 69.6321 69.6321 55.1263 69.6321 37.2324C69.6321 19.3386 55.1263 4.83274 37.2324 4.83274C19.3386 4.83274 4.83274 19.3386 4.83274 37.2324Z" fill="#7072AE"/>
<path d="M64.5629 32.8579L59.3983 39.0554C59.1557 39.3465 58.8281 39.5545 58.4615 39.6501L50.6699 41.6827C49.5794 41.9672 49.0086 43.1657 49.4749 44.1917L52.7972 51.5007C53.0048 51.9574 53.0142 52.4798 52.8232 52.9437L49.5807 60.8187C49.0977 61.9919 49.9358 63.2862 51.2039 63.3255L58.3061 63.5456C58.7681 63.5599 59.2072 63.7499 59.5341 64.0767L65.3008 69.8434C66.0693 70.6119 67.3361 70.538 68.01 69.6854L72.7276 63.7166C72.97 63.4099 73.3049 63.1896 73.6825 63.0884L82.0006 60.8596C82.9695 60.6 83.5445 59.6041 83.2849 58.6352L81.3259 51.3245C81.2434 51.0165 81.2434 50.6923 81.3259 50.3843L83.4804 42.3438C83.7579 41.308 83.0824 40.2585 82.0247 40.0822L73.6751 38.6906C73.3017 38.6284 72.9571 38.4511 72.6894 38.1834L67.2424 32.7364C66.4872 31.9812 65.2466 32.0375 64.5629 32.8579Z" fill="#101478" stroke="white" stroke-width="3.63243" stroke-linejoin="round"/>
</svg>
