<svg width="80" height="63" viewBox="0 0 80 63" fill="none" xmlns="http://www.w3.org/2000/svg">
<path d="M59.5 16.333H10.1667C6.76091 16.333 4 19.0939 4 22.4997V53.333C4 56.7388 6.76091 59.4997 10.1667 59.4997H59.5C62.9058 59.4997 65.6667 56.7388 65.6667 53.333V22.4997C65.6667 19.0939 62.9058 16.333 59.5 16.333Z" stroke="#585BA1" stroke-width="6.16667" stroke-linecap="round" stroke-linejoin="round"/>
<path d="M47.1667 59.5V10.1667C47.1667 8.53116 46.517 6.96265 45.3605 5.80617C44.204 4.6497 42.6355 4 41 4H28.6667C27.0312 4 25.4627 4.6497 24.3062 5.80617C23.1497 6.96265 22.5 8.53116 22.5 10.1667V59.5" stroke="#585BA1" stroke-width="6.16667" stroke-linecap="round" stroke-linejoin="round"/>
<path d="M55 16L62 23L76 9" stroke="white" stroke-width="7" stroke-linecap="round" stroke-linejoin="round"/>
</svg>
