<svg width="88" height="88" viewBox="0 0 88 88" fill="none" xmlns="http://www.w3.org/2000/svg">
<path opacity="0.4" d="M12.1875 56.0391C12.1875 56.0391 12.6789 62.0532 12.7931 63.9494C12.9453 66.4928 13.9281 69.3338 15.5683 71.3062C17.8832 74.1021 20.61 75.0883 24.2503 75.0952C28.5308 75.1022 59.6567 75.1022 63.9371 75.0952C67.5774 75.0883 70.3042 74.1021 72.6192 71.3062C74.2594 69.3338 75.2421 66.4928 75.3978 63.9494C75.5086 62.0532 76 56.0391 76 56.0391" stroke="white" stroke-width="5" stroke-linecap="round" stroke-linejoin="round"/>
<path d="M31.8828 20.9243V19.6405C31.8828 15.4188 35.3016 12 39.5233 12H48.4579C52.6761 12 56.0984 15.4188 56.0984 19.6405L56.1019 20.9243" stroke="white" stroke-width="5" stroke-linecap="round" stroke-linejoin="round"/>
<path d="M43.9922 60.1945V55.7168" stroke="white" stroke-width="5" stroke-linecap="round" stroke-linejoin="round"/>
<path fill-rule="evenodd" clip-rule="evenodd" d="M12 31.5115V43.5085C18.637 47.8859 26.5889 50.9517 35.3159 52.1663C36.3609 48.3565 39.797 45.564 43.9737 45.564C48.0846 45.564 51.5899 48.3565 52.5658 52.2009C61.3274 50.9864 69.3104 47.9205 75.982 43.5085V31.5115C75.982 25.6496 71.2655 20.9297 65.4037 20.9297H22.6129C16.7511 20.9297 12 25.6496 12 31.5115Z" stroke="white" stroke-width="5" stroke-linecap="round" stroke-linejoin="round"/>
</svg>
