<svg width="490" height="484" viewBox="0 0 490 484" fill="none" xmlns="http://www.w3.org/2000/svg">
<g filter="url(#filter0_d_1_998)">
<rect x="100" y="50" width="290" height="284" rx="8" fill="white"/>
</g>
<path d="M184.764 211.152V228H180.66V211.152H184.764ZM195.898 214.464C197.466 214.464 198.714 214.976 199.642 216C200.586 217.008 201.058 218.4 201.058 220.176V228H196.978V220.728C196.978 219.832 196.746 219.136 196.282 218.64C195.818 218.144 195.194 217.896 194.41 217.896C193.626 217.896 193.002 218.144 192.538 218.64C192.074 219.136 191.842 219.832 191.842 220.728V228H187.738V214.608H191.842V216.384C192.258 215.792 192.818 215.328 193.522 214.992C194.226 214.64 195.018 214.464 195.898 214.464ZM212.07 214.464C213.638 214.464 214.886 214.976 215.814 216C216.758 217.008 217.23 218.4 217.23 220.176V228H213.15V220.728C213.15 219.832 212.918 219.136 212.454 218.64C211.99 218.144 211.366 217.896 210.582 217.896C209.798 217.896 209.174 218.144 208.71 218.64C208.246 219.136 208.014 219.832 208.014 220.728V228H203.91V214.608H208.014V216.384C208.43 215.792 208.99 215.328 209.694 214.992C210.398 214.64 211.19 214.464 212.07 214.464ZM226.178 228.192C224.866 228.192 223.682 227.912 222.626 227.352C221.586 226.792 220.762 225.992 220.154 224.952C219.562 223.912 219.266 222.696 219.266 221.304C219.266 219.928 219.57 218.72 220.178 217.68C220.786 216.624 221.618 215.816 222.674 215.256C223.73 214.696 224.914 214.416 226.226 214.416C227.538 214.416 228.722 214.696 229.778 215.256C230.834 215.816 231.666 216.624 232.274 217.68C232.882 218.72 233.186 219.928 233.186 221.304C233.186 222.68 232.874 223.896 232.25 224.952C231.642 225.992 230.802 226.792 229.73 227.352C228.674 227.912 227.49 228.192 226.178 228.192ZM226.178 224.64C226.962 224.64 227.626 224.352 228.17 223.776C228.73 223.2 229.01 222.376 229.01 221.304C229.01 220.232 228.738 219.408 228.194 218.832C227.666 218.256 227.01 217.968 226.226 217.968C225.426 217.968 224.762 218.256 224.234 218.832C223.706 219.392 223.442 220.216 223.442 221.304C223.442 222.376 223.698 223.2 224.21 223.776C224.738 224.352 225.394 224.64 226.178 224.64ZM241.387 224.16L244.291 214.608H248.659L243.907 228H238.843L234.091 214.608H238.483L241.387 224.16ZM249.57 221.28C249.57 219.904 249.826 218.696 250.338 217.656C250.866 216.616 251.578 215.816 252.474 215.256C253.37 214.696 254.37 214.416 255.474 214.416C256.418 214.416 257.242 214.608 257.946 214.992C258.666 215.376 259.218 215.88 259.602 216.504V214.608H263.706V228H259.602V226.104C259.202 226.728 258.642 227.232 257.922 227.616C257.218 228 256.394 228.192 255.45 228.192C254.362 228.192 253.37 227.912 252.474 227.352C251.578 226.776 250.866 225.968 250.338 224.928C249.826 223.872 249.57 222.656 249.57 221.28ZM259.602 221.304C259.602 220.28 259.314 219.472 258.738 218.88C258.178 218.288 257.49 217.992 256.674 217.992C255.858 217.992 255.162 218.288 254.586 218.88C254.026 219.456 253.746 220.256 253.746 221.28C253.746 222.304 254.026 223.12 254.586 223.728C255.162 224.32 255.858 224.616 256.674 224.616C257.49 224.616 258.178 224.32 258.738 223.728C259.314 223.136 259.602 222.328 259.602 221.304ZM274.14 224.52V228H272.052C270.564 228 269.404 227.64 268.572 226.92C267.74 226.184 267.324 224.992 267.324 223.344V218.016H265.692V214.608H267.324V211.344H271.428V214.608H274.116V218.016H271.428V223.392C271.428 223.792 271.524 224.08 271.716 224.256C271.908 224.432 272.228 224.52 272.676 224.52H274.14ZM278.49 213.216C277.77 213.216 277.178 213.008 276.714 212.592C276.266 212.16 276.042 211.632 276.042 211.008C276.042 210.368 276.266 209.84 276.714 209.424C277.178 208.992 277.77 208.776 278.49 208.776C279.194 208.776 279.77 208.992 280.218 209.424C280.682 209.84 280.914 210.368 280.914 211.008C280.914 211.632 280.682 212.16 280.218 212.592C279.77 213.008 279.194 213.216 278.49 213.216ZM280.53 214.608V228H276.426V214.608H280.53ZM289.528 224.16L292.432 214.608H296.8L292.048 228H286.984L282.232 214.608H286.624L289.528 224.16ZM311.151 221.088C311.151 221.472 311.127 221.872 311.079 222.288H301.791C301.855 223.12 302.119 223.76 302.583 224.208C303.063 224.64 303.647 224.856 304.335 224.856C305.359 224.856 306.071 224.424 306.471 223.56H310.839C310.615 224.44 310.207 225.232 309.615 225.936C309.039 226.64 308.311 227.192 307.431 227.592C306.551 227.992 305.567 228.192 304.479 228.192C303.167 228.192 301.999 227.912 300.975 227.352C299.951 226.792 299.151 225.992 298.575 224.952C297.999 223.912 297.711 222.696 297.711 221.304C297.711 219.912 297.991 218.696 298.551 217.656C299.127 216.616 299.927 215.816 300.951 215.256C301.975 214.696 303.151 214.416 304.479 214.416C305.775 214.416 306.927 214.688 307.935 215.232C308.943 215.776 309.727 216.552 310.287 217.56C310.863 218.568 311.151 219.744 311.151 221.088ZM306.951 220.008C306.951 219.304 306.711 218.744 306.231 218.328C305.751 217.912 305.151 217.704 304.431 217.704C303.743 217.704 303.159 217.904 302.679 218.304C302.215 218.704 301.927 219.272 301.815 220.008H306.951ZM197.999 253.552C197.999 251.888 198.359 250.408 199.079 249.112C199.799 247.8 200.799 246.784 202.079 246.064C203.375 245.328 204.839 244.96 206.471 244.96C208.471 244.96 210.183 245.488 211.607 246.544C213.031 247.6 213.983 249.04 214.463 250.864H209.951C209.615 250.16 209.135 249.624 208.511 249.256C207.903 248.888 207.207 248.704 206.423 248.704C205.159 248.704 204.135 249.144 203.351 250.024C202.567 250.904 202.175 252.08 202.175 253.552C202.175 255.024 202.567 256.2 203.351 257.08C204.135 257.96 205.159 258.4 206.423 258.4C207.207 258.4 207.903 258.216 208.511 257.848C209.135 257.48 209.615 256.944 209.951 256.24H214.463C213.983 258.064 213.031 259.504 211.607 260.56C210.183 261.6 208.471 262.12 206.471 262.12C204.839 262.12 203.375 261.76 202.079 261.04C200.799 260.304 199.799 259.288 199.079 257.992C198.359 256.696 197.999 255.216 197.999 253.552ZM221.08 244.24V262H216.976V244.24H221.08ZM223.238 255.28C223.238 253.904 223.494 252.696 224.006 251.656C224.534 250.616 225.246 249.816 226.142 249.256C227.038 248.696 228.038 248.416 229.142 248.416C230.086 248.416 230.91 248.608 231.614 248.992C232.334 249.376 232.886 249.88 233.27 250.504V248.608H237.374V262H233.27V260.104C232.87 260.728 232.31 261.232 231.59 261.616C230.886 262 230.062 262.192 229.118 262.192C228.03 262.192 227.038 261.912 226.142 261.352C225.246 260.776 224.534 259.968 224.006 258.928C223.494 257.872 223.238 256.656 223.238 255.28ZM233.27 255.304C233.27 254.28 232.982 253.472 232.406 252.88C231.846 252.288 231.158 251.992 230.342 251.992C229.526 251.992 228.83 252.288 228.254 252.88C227.694 253.456 227.414 254.256 227.414 255.28C227.414 256.304 227.694 257.12 228.254 257.728C228.83 258.32 229.526 258.616 230.342 258.616C231.158 258.616 231.846 258.32 232.406 257.728C232.982 257.136 233.27 256.328 233.27 255.304ZM245.791 262.192C244.623 262.192 243.583 261.992 242.671 261.592C241.759 261.192 241.039 260.648 240.511 259.96C239.983 259.256 239.687 258.472 239.623 257.608H243.679C243.727 258.072 243.943 258.448 244.327 258.736C244.711 259.024 245.183 259.168 245.743 259.168C246.255 259.168 246.647 259.072 246.919 258.88C247.207 258.672 247.351 258.408 247.351 258.088C247.351 257.704 247.151 257.424 246.751 257.248C246.351 257.056 245.703 256.848 244.807 256.624C243.847 256.4 243.047 256.168 242.407 255.928C241.767 255.672 241.215 255.28 240.751 254.752C240.287 254.208 240.055 253.48 240.055 252.568C240.055 251.8 240.263 251.104 240.679 250.48C241.111 249.84 241.735 249.336 242.551 248.968C243.383 248.6 244.367 248.416 245.503 248.416C247.183 248.416 248.503 248.832 249.463 249.664C250.439 250.496 250.999 251.6 251.143 252.976H247.351C247.287 252.512 247.079 252.144 246.727 251.872C246.391 251.6 245.943 251.464 245.383 251.464C244.903 251.464 244.535 251.56 244.279 251.752C244.023 251.928 243.895 252.176 243.895 252.496C243.895 252.88 244.095 253.168 244.495 253.36C244.911 253.552 245.551 253.744 246.415 253.936C247.407 254.192 248.215 254.448 248.839 254.704C249.463 254.944 250.007 255.344 250.471 255.904C250.951 256.448 251.199 257.184 251.215 258.112C251.215 258.896 250.991 259.6 250.543 260.224C250.111 260.832 249.479 261.312 248.647 261.664C247.831 262.016 246.879 262.192 245.791 262.192ZM259.174 262.192C258.006 262.192 256.966 261.992 256.054 261.592C255.142 261.192 254.422 260.648 253.894 259.96C253.366 259.256 253.07 258.472 253.006 257.608H257.062C257.11 258.072 257.326 258.448 257.71 258.736C258.094 259.024 258.566 259.168 259.126 259.168C259.638 259.168 260.03 259.072 260.302 258.88C260.59 258.672 260.734 258.408 260.734 258.088C260.734 257.704 260.534 257.424 260.134 257.248C259.734 257.056 259.086 256.848 258.19 256.624C257.23 256.4 256.43 256.168 255.79 255.928C255.15 255.672 254.598 255.28 254.134 254.752C253.67 254.208 253.438 253.48 253.438 252.568C253.438 251.8 253.646 251.104 254.062 250.48C254.494 249.84 255.118 249.336 255.934 248.968C256.766 248.6 257.75 248.416 258.886 248.416C260.566 248.416 261.886 248.832 262.846 249.664C263.822 250.496 264.382 251.6 264.526 252.976H260.734C260.67 252.512 260.462 252.144 260.11 251.872C259.774 251.6 259.326 251.464 258.766 251.464C258.286 251.464 257.918 251.56 257.662 251.752C257.406 251.928 257.278 252.176 257.278 252.496C257.278 252.88 257.478 253.168 257.878 253.36C258.294 253.552 258.934 253.744 259.798 253.936C260.79 254.192 261.598 254.448 262.222 254.704C262.846 254.944 263.39 255.344 263.854 255.904C264.334 256.448 264.582 257.184 264.598 258.112C264.598 258.896 264.374 259.6 263.926 260.224C263.494 260.832 262.862 261.312 262.03 261.664C261.214 262.016 260.262 262.192 259.174 262.192ZM279.733 255.088C279.733 255.472 279.709 255.872 279.661 256.288H270.373C270.437 257.12 270.701 257.76 271.165 258.208C271.645 258.64 272.229 258.856 272.917 258.856C273.941 258.856 274.653 258.424 275.053 257.56H279.421C279.197 258.44 278.789 259.232 278.197 259.936C277.621 260.64 276.893 261.192 276.013 261.592C275.133 261.992 274.149 262.192 273.061 262.192C271.749 262.192 270.581 261.912 269.557 261.352C268.533 260.792 267.733 259.992 267.157 258.952C266.581 257.912 266.293 256.696 266.293 255.304C266.293 253.912 266.573 252.696 267.133 251.656C267.709 250.616 268.509 249.816 269.533 249.256C270.557 248.696 271.733 248.416 273.061 248.416C274.357 248.416 275.509 248.688 276.517 249.232C277.525 249.776 278.309 250.552 278.869 251.56C279.445 252.568 279.733 253.744 279.733 255.088ZM275.533 254.008C275.533 253.304 275.293 252.744 274.813 252.328C274.333 251.912 273.733 251.704 273.013 251.704C272.325 251.704 271.741 251.904 271.261 252.304C270.797 252.704 270.509 253.272 270.397 254.008H275.533ZM287.346 262.192C286.178 262.192 285.138 261.992 284.226 261.592C283.314 261.192 282.594 260.648 282.066 259.96C281.538 259.256 281.242 258.472 281.178 257.608H285.234C285.282 258.072 285.498 258.448 285.882 258.736C286.266 259.024 286.738 259.168 287.298 259.168C287.81 259.168 288.202 259.072 288.474 258.88C288.762 258.672 288.906 258.408 288.906 258.088C288.906 257.704 288.706 257.424 288.306 257.248C287.906 257.056 287.258 256.848 286.362 256.624C285.402 256.4 284.602 256.168 283.962 255.928C283.322 255.672 282.77 255.28 282.306 254.752C281.842 254.208 281.61 253.48 281.61 252.568C281.61 251.8 281.818 251.104 282.234 250.48C282.666 249.84 283.29 249.336 284.106 248.968C284.938 248.6 285.922 248.416 287.058 248.416C288.738 248.416 290.058 248.832 291.018 249.664C291.994 250.496 292.554 251.6 292.698 252.976H288.906C288.842 252.512 288.634 252.144 288.282 251.872C287.946 251.6 287.498 251.464 286.938 251.464C286.458 251.464 286.09 251.56 285.834 251.752C285.578 251.928 285.45 252.176 285.45 252.496C285.45 252.88 285.65 253.168 286.05 253.36C286.466 253.552 287.106 253.744 287.97 253.936C288.962 254.192 289.77 254.448 290.394 254.704C291.018 254.944 291.562 255.344 292.026 255.904C292.506 256.448 292.754 257.184 292.77 258.112C292.77 258.896 292.546 259.6 292.098 260.224C291.666 260.832 291.034 261.312 290.202 261.664C289.386 262.016 288.434 262.192 287.346 262.192Z" fill="#0B1131"/>
<g filter="url(#filter1_d_1_998)">
<path d="M281 149C281 129.118 264.882 113 245 113C225.118 113 209 129.118 209 149V185H245C264.882 185 281 168.882 281 149Z" fill="#151BB1"/>
</g>
<path d="M238.697 149.629V157.119" stroke="white" stroke-width="4" stroke-linecap="round" stroke-linejoin="round"/>
<path d="M242.517 153.373H234.875" stroke="white" stroke-width="4" stroke-linecap="round" stroke-linejoin="round"/>
<path d="M251.732 149.855H251.518" stroke="white" stroke-width="4" stroke-linecap="round" stroke-linejoin="round"/>
<path d="M255.359 157.006H255.145" stroke="white" stroke-width="4" stroke-linecap="round" stroke-linejoin="round"/>
<path opacity="0.4" d="M237.144 129C237.144 130.481 238.369 131.682 239.88 131.682H241.993C244.325 131.69 246.213 133.541 246.223 135.825V137.175" stroke="white" stroke-width="4" stroke-linecap="round" stroke-linejoin="round"/>
<path fill-rule="evenodd" clip-rule="evenodd" d="M253.857 168.925C247.846 169.026 241.946 169.022 236.145 168.925C229.707 168.925 225 164.332 225 158.022V148.723C225 142.413 229.707 137.82 236.145 137.82C241.978 137.72 247.882 137.722 253.857 137.82C260.295 137.82 265 142.415 265 148.723V158.022C265 164.332 260.295 168.925 253.857 168.925Z" stroke="white" stroke-width="4" stroke-linecap="round" stroke-linejoin="round"/>
<defs>
<filter id="filter0_d_1_998" x="0" y="0" width="490" height="484" filterUnits="userSpaceOnUse" color-interpolation-filters="sRGB">
<feFlood flood-opacity="0" result="BackgroundImageFix"/>
<feColorMatrix in="SourceAlpha" type="matrix" values="0 0 0 0 0 0 0 0 0 0 0 0 0 0 0 0 0 0 127 0" result="hardAlpha"/>
<feOffset dy="50"/>
<feGaussianBlur stdDeviation="50"/>
<feColorMatrix type="matrix" values="0 0 0 0 0 0 0 0 0 0 0 0 0 0 0 0 0 0 0.1 0"/>
<feBlend mode="normal" in2="BackgroundImageFix" result="effect1_dropShadow_1_998"/>
<feBlend mode="normal" in="SourceGraphic" in2="effect1_dropShadow_1_998" result="shape"/>
</filter>
<filter id="filter1_d_1_998" x="159" y="73" width="172" height="172" filterUnits="userSpaceOnUse" color-interpolation-filters="sRGB">
<feFlood flood-opacity="0" result="BackgroundImageFix"/>
<feColorMatrix in="SourceAlpha" type="matrix" values="0 0 0 0 0 0 0 0 0 0 0 0 0 0 0 0 0 0 127 0" result="hardAlpha"/>
<feOffset dy="10"/>
<feGaussianBlur stdDeviation="25"/>
<feColorMatrix type="matrix" values="0 0 0 0 0.188235 0 0 0 0 0.160784 0 0 0 0 0.85098 0 0 0 0.3 0"/>
<feBlend mode="normal" in2="BackgroundImageFix" result="effect1_dropShadow_1_998"/>
<feBlend mode="normal" in="SourceGraphic" in2="effect1_dropShadow_1_998" result="shape"/>
</filter>
</defs>
</svg>
