<svg width="490" height="484" viewBox="0 0 490 484" fill="none" xmlns="http://www.w3.org/2000/svg">
<g filter="url(#filter0_d_1_1012)">
<rect x="100" y="50" width="290" height="284" rx="8" fill="white"/>
</g>
<path d="M174.708 222.048V228H170.604V211.032H177.252C179.268 211.032 180.804 211.536 181.859 212.544C182.916 213.536 183.444 214.88 183.444 216.576C183.444 217.632 183.204 218.576 182.724 219.408C182.26 220.224 181.564 220.872 180.636 221.352C179.708 221.816 178.58 222.048 177.252 222.048H174.708ZM176.796 218.76C178.444 218.76 179.268 218.032 179.268 216.576C179.268 215.088 178.444 214.344 176.796 214.344H174.708V218.76H176.796ZM189.567 217.128C190.079 216.312 190.735 215.664 191.535 215.184C192.351 214.704 193.231 214.464 194.175 214.464V218.856H192.999C191.911 218.856 191.063 219.088 190.455 219.552C189.863 220.016 189.567 220.8 189.567 221.904V228H185.463V214.608H189.567V217.128ZM202.157 214.44C203.485 214.44 204.669 214.72 205.709 215.28C206.765 215.824 207.589 216.616 208.181 217.656C208.789 218.696 209.093 219.912 209.093 221.304C209.093 222.696 208.789 223.912 208.181 224.952C207.589 225.992 206.765 226.792 205.709 227.352C204.669 227.896 203.485 228.168 202.157 228.168C200.829 228.168 199.637 227.896 198.581 227.352C197.525 226.792 196.693 225.992 196.085 224.952C195.493 223.912 195.197 222.696 195.197 221.304C195.197 219.912 195.493 218.696 196.085 217.656C196.693 216.616 197.525 215.824 198.581 215.28C199.637 214.72 200.829 214.44 202.157 214.44ZM202.157 217.992C201.373 217.992 200.709 218.28 200.165 218.856C199.637 219.416 199.373 220.232 199.373 221.304C199.373 222.376 199.637 223.192 200.165 223.752C200.709 224.312 201.373 224.592 202.157 224.592C202.941 224.592 203.597 224.312 204.125 223.752C204.653 223.192 204.917 222.376 204.917 221.304C204.917 220.232 204.653 219.416 204.125 218.856C203.597 218.28 202.941 217.992 202.157 217.992ZM217.797 212.784C217.125 212.784 216.637 212.928 216.333 213.216C216.029 213.504 215.861 213.968 215.829 214.608H218.253V218.064H215.829V228H211.725V218.064H210.117V214.608H211.725V214.464C211.725 212.8 212.205 211.52 213.165 210.624C214.141 209.712 215.549 209.256 217.389 209.256C217.773 209.256 218.061 209.264 218.253 209.28V212.808L217.797 212.784ZM232.777 220.944C232.777 221.28 232.737 221.648 232.657 222.048H223.369C223.417 223.056 223.673 223.784 224.137 224.232C224.601 224.664 225.193 224.88 225.913 224.88C226.521 224.88 227.025 224.728 227.425 224.424C227.825 224.12 228.089 223.728 228.217 223.248H232.561C232.385 224.192 232.001 225.04 231.409 225.792C230.817 226.528 230.065 227.112 229.153 227.544C228.241 227.96 227.225 228.168 226.105 228.168C224.793 228.168 223.625 227.896 222.601 227.352C221.593 226.792 220.801 225.992 220.225 224.952C219.649 223.912 219.361 222.696 219.361 221.304C219.361 219.896 219.641 218.68 220.201 217.656C220.777 216.616 221.577 215.824 222.601 215.28C223.625 214.72 224.793 214.44 226.105 214.44C227.433 214.44 228.601 214.712 229.609 215.256C230.617 215.8 231.393 216.568 231.937 217.56C232.497 218.536 232.777 219.664 232.777 220.944ZM228.625 220.32C228.641 219.44 228.401 218.784 227.905 218.352C227.425 217.904 226.825 217.68 226.105 217.68C225.353 217.68 224.729 217.904 224.233 218.352C223.737 218.8 223.457 219.456 223.393 220.32H228.625ZM239.788 214.44C241.484 214.44 242.836 214.864 243.844 215.712C244.868 216.56 245.508 217.68 245.764 219.072H241.924C241.812 218.528 241.556 218.104 241.156 217.8C240.772 217.48 240.284 217.32 239.692 217.32C239.228 217.32 238.876 217.424 238.636 217.632C238.396 217.824 238.276 218.104 238.276 218.472C238.276 218.888 238.492 219.2 238.924 219.408C239.372 219.616 240.068 219.824 241.012 220.032C242.036 220.272 242.876 220.52 243.532 220.776C244.188 221.016 244.756 221.416 245.236 221.976C245.716 222.536 245.956 223.288 245.956 224.232C245.956 225 245.748 225.68 245.332 226.272C244.916 226.864 244.316 227.328 243.532 227.664C242.748 228 241.82 228.168 240.748 228.168C238.94 228.168 237.492 227.768 236.404 226.968C235.316 226.168 234.652 225.024 234.412 223.536H238.372C238.436 224.112 238.676 224.552 239.092 224.856C239.524 225.16 240.076 225.312 240.748 225.312C241.212 225.312 241.564 225.208 241.804 225C242.044 224.776 242.164 224.488 242.164 224.136C242.164 223.672 241.94 223.344 241.492 223.152C241.06 222.944 240.348 222.728 239.356 222.504C238.364 222.296 237.548 222.072 236.908 221.832C236.268 221.592 235.716 221.208 235.252 220.68C234.788 220.136 234.556 219.4 234.556 218.472C234.556 217.272 235.012 216.304 235.924 215.568C236.836 214.816 238.124 214.44 239.788 214.44ZM253.101 214.44C254.797 214.44 256.149 214.864 257.157 215.712C258.181 216.56 258.821 217.68 259.077 219.072H255.237C255.125 218.528 254.869 218.104 254.469 217.8C254.085 217.48 253.597 217.32 253.005 217.32C252.541 217.32 252.189 217.424 251.949 217.632C251.709 217.824 251.589 218.104 251.589 218.472C251.589 218.888 251.805 219.2 252.237 219.408C252.685 219.616 253.381 219.824 254.325 220.032C255.349 220.272 256.189 220.52 256.845 220.776C257.501 221.016 258.069 221.416 258.549 221.976C259.029 222.536 259.269 223.288 259.269 224.232C259.269 225 259.061 225.68 258.645 226.272C258.229 226.864 257.629 227.328 256.845 227.664C256.061 228 255.133 228.168 254.061 228.168C252.253 228.168 250.805 227.768 249.717 226.968C248.629 226.168 247.965 225.024 247.725 223.536H251.685C251.749 224.112 251.989 224.552 252.405 224.856C252.837 225.16 253.389 225.312 254.061 225.312C254.525 225.312 254.877 225.208 255.117 225C255.357 224.776 255.477 224.488 255.477 224.136C255.477 223.672 255.253 223.344 254.805 223.152C254.373 222.944 253.661 222.728 252.669 222.504C251.677 222.296 250.861 222.072 250.221 221.832C249.581 221.592 249.029 221.208 248.565 220.68C248.101 220.136 247.869 219.4 247.869 218.472C247.869 217.272 248.325 216.304 249.237 215.568C250.149 214.816 251.437 214.44 253.101 214.44ZM261.157 210.84C261.157 210.216 261.381 209.704 261.829 209.304C262.277 208.888 262.869 208.68 263.605 208.68C264.341 208.68 264.933 208.888 265.381 209.304C265.829 209.704 266.053 210.216 266.053 210.84C266.053 211.448 265.829 211.96 265.381 212.376C264.933 212.776 264.341 212.976 263.605 212.976C262.869 212.976 262.277 212.776 261.829 212.376C261.381 211.96 261.157 211.448 261.157 210.84ZM265.645 214.608V228H261.541V214.608H265.645ZM274.743 214.44C276.071 214.44 277.255 214.72 278.295 215.28C279.351 215.824 280.175 216.616 280.767 217.656C281.375 218.696 281.679 219.912 281.679 221.304C281.679 222.696 281.375 223.912 280.767 224.952C280.175 225.992 279.351 226.792 278.295 227.352C277.255 227.896 276.071 228.168 274.743 228.168C273.415 228.168 272.223 227.896 271.167 227.352C270.111 226.792 269.279 225.992 268.671 224.952C268.079 223.912 267.783 222.696 267.783 221.304C267.783 219.912 268.079 218.696 268.671 217.656C269.279 216.616 270.111 215.824 271.167 215.28C272.223 214.72 273.415 214.44 274.743 214.44ZM274.743 217.992C273.959 217.992 273.295 218.28 272.751 218.856C272.223 219.416 271.959 220.232 271.959 221.304C271.959 222.376 272.223 223.192 272.751 223.752C273.295 224.312 273.959 224.592 274.743 224.592C275.527 224.592 276.183 224.312 276.711 223.752C277.239 223.192 277.503 222.376 277.503 221.304C277.503 220.232 277.239 219.416 276.711 218.856C276.183 218.28 275.527 217.992 274.743 217.992ZM292.303 214.464C293.839 214.464 295.055 214.976 295.951 216C296.863 217.024 297.319 218.432 297.319 220.224V228H293.215V220.704C293.215 219.808 292.975 219.112 292.495 218.616C292.031 218.104 291.407 217.848 290.623 217.848C289.791 217.848 289.127 218.112 288.631 218.64C288.151 219.168 287.911 219.92 287.911 220.896V228H283.807V214.608H287.911V217.056C288.295 216.256 288.863 215.624 289.615 215.16C290.383 214.696 291.279 214.464 292.303 214.464ZM305.113 214.44C306.137 214.44 307.017 214.672 307.753 215.136C308.489 215.6 309.033 216.232 309.385 217.032V214.608H313.465V228H309.385V225.576C309.033 226.376 308.489 227.008 307.753 227.472C307.017 227.936 306.137 228.168 305.113 228.168C304.009 228.168 303.017 227.896 302.137 227.352C301.273 226.792 300.585 225.992 300.073 224.952C299.577 223.912 299.329 222.696 299.329 221.304C299.329 219.896 299.577 218.68 300.073 217.656C300.585 216.616 301.273 215.824 302.137 215.28C303.017 214.72 304.009 214.44 305.113 214.44ZM306.433 218.04C305.553 218.04 304.841 218.328 304.297 218.904C303.769 219.48 303.505 220.28 303.505 221.304C303.505 222.328 303.769 223.128 304.297 223.704C304.841 224.28 305.553 224.568 306.433 224.568C307.297 224.568 308.001 224.272 308.545 223.68C309.105 223.088 309.385 222.296 309.385 221.304C309.385 220.296 309.105 219.504 308.545 218.928C308.001 218.336 307.297 218.04 306.433 218.04ZM320.395 210.24V228H316.291V210.24H320.395ZM223.893 245.032V248.296H219.285V262H215.157V248.296H210.597V245.032H223.893ZM238.343 254.944C238.343 255.28 238.303 255.648 238.223 256.048H228.935C228.983 257.056 229.239 257.784 229.703 258.232C230.167 258.664 230.759 258.88 231.479 258.88C232.087 258.88 232.591 258.728 232.991 258.424C233.391 258.12 233.655 257.728 233.783 257.248H238.127C237.951 258.192 237.567 259.04 236.975 259.792C236.383 260.528 235.631 261.112 234.719 261.544C233.807 261.96 232.791 262.168 231.671 262.168C230.359 262.168 229.191 261.896 228.167 261.352C227.159 260.792 226.367 259.992 225.791 258.952C225.215 257.912 224.927 256.696 224.927 255.304C224.927 253.896 225.207 252.68 225.767 251.656C226.343 250.616 227.143 249.824 228.167 249.28C229.191 248.72 230.359 248.44 231.671 248.44C232.999 248.44 234.167 248.712 235.175 249.256C236.183 249.8 236.959 250.568 237.503 251.56C238.063 252.536 238.343 253.664 238.343 254.944ZM234.191 254.32C234.207 253.44 233.967 252.784 233.471 252.352C232.991 251.904 232.391 251.68 231.671 251.68C230.919 251.68 230.295 251.904 229.799 252.352C229.303 252.8 229.023 253.456 228.959 254.32H234.191ZM245.57 248.44C246.594 248.44 247.474 248.672 248.21 249.136C248.946 249.6 249.49 250.232 249.842 251.032V248.608H253.922V262H249.842V259.576C249.49 260.376 248.946 261.008 248.21 261.472C247.474 261.936 246.594 262.168 245.57 262.168C244.466 262.168 243.474 261.896 242.594 261.352C241.73 260.792 241.042 259.992 240.53 258.952C240.034 257.912 239.786 256.696 239.786 255.304C239.786 253.896 240.034 252.68 240.53 251.656C241.042 250.616 241.73 249.824 242.594 249.28C243.474 248.72 244.466 248.44 245.57 248.44ZM246.89 252.04C246.01 252.04 245.298 252.328 244.754 252.904C244.226 253.48 243.962 254.28 243.962 255.304C243.962 256.328 244.226 257.128 244.754 257.704C245.298 258.28 246.01 258.568 246.89 258.568C247.754 258.568 248.458 258.272 249.002 257.68C249.562 257.088 249.842 256.296 249.842 255.304C249.842 254.296 249.562 253.504 249.002 252.928C248.458 252.336 247.754 252.04 246.89 252.04ZM274.1 248.464C275.748 248.464 277.044 248.976 277.988 250C278.932 251.008 279.404 252.416 279.404 254.224V262H275.324V254.704C275.324 253.856 275.092 253.2 274.628 252.736C274.18 252.256 273.564 252.016 272.78 252.016C271.964 252.016 271.316 252.272 270.836 252.784C270.372 253.28 270.14 253.984 270.14 254.896V262H266.036V254.704C266.036 253.856 265.812 253.2 265.364 252.736C264.916 252.256 264.3 252.016 263.516 252.016C262.7 252.016 262.052 252.264 261.572 252.76C261.092 253.256 260.852 253.968 260.852 254.896V262H256.748V248.608H260.852V250.888C261.204 250.136 261.74 249.544 262.46 249.112C263.196 248.68 264.052 248.464 265.028 248.464C266.052 248.464 266.956 248.704 267.74 249.184C268.524 249.648 269.116 250.32 269.516 251.2C269.98 250.368 270.612 249.704 271.412 249.208C272.228 248.712 273.124 248.464 274.1 248.464Z" fill="#0B1131"/>
<g filter="url(#filter1_d_1_1012)">
<path d="M281 149C281 129.118 264.882 113 245 113C225.118 113 209 129.118 209 149V185H245C264.882 185 281 168.882 281 149Z" fill="#151BB1"/>
</g>
<path opacity="0.4" d="M256.023 147.154C259.148 147.154 261.683 144.621 261.683 141.496C261.683 138.371 259.148 135.838 256.023 135.838" stroke="white" stroke-width="4" stroke-linecap="round" stroke-linejoin="round"/>
<path d="M258.625 153.303C259.558 153.367 260.486 153.499 261.4 153.705C262.669 153.953 264.196 154.474 264.739 155.613C265.086 156.342 265.086 157.191 264.739 157.922C264.197 159.061 262.669 159.58 261.4 159.841" stroke="white" stroke-width="4" stroke-linecap="round" stroke-linejoin="round"/>
<path opacity="0.4" d="M233.976 147.154C230.851 147.154 228.316 144.621 228.316 141.496C228.316 138.371 230.851 135.838 233.976 135.838" stroke="white" stroke-width="4" stroke-linecap="round" stroke-linejoin="round"/>
<path d="M231.374 153.303C230.441 153.367 229.513 153.499 228.599 153.705C227.33 153.953 225.803 154.474 225.261 155.613C224.913 156.342 224.913 157.191 225.261 157.922C225.801 159.061 227.33 159.58 228.599 159.841" stroke="white" stroke-width="4" stroke-linecap="round" stroke-linejoin="round"/>
<path fill-rule="evenodd" clip-rule="evenodd" d="M244.992 154.521C251.324 154.521 256.734 155.48 256.734 159.314C256.734 163.147 251.36 164.141 244.992 164.141C238.658 164.141 233.25 163.183 233.25 159.348C233.25 155.514 238.624 154.521 244.992 154.521Z" stroke="white" stroke-width="4" stroke-linecap="round" stroke-linejoin="round"/>
<path opacity="0.4" fill-rule="evenodd" clip-rule="evenodd" d="M244.99 149.051C240.813 149.051 237.465 145.703 237.465 141.525C237.465 137.348 240.813 134 244.99 134C249.166 134 252.514 137.348 252.514 141.525C252.514 145.703 249.166 149.051 244.99 149.051Z" stroke="white" stroke-width="4" stroke-linecap="round" stroke-linejoin="round"/>
<defs>
<filter id="filter0_d_1_1012" x="0" y="0" width="490" height="484" filterUnits="userSpaceOnUse" color-interpolation-filters="sRGB">
<feFlood flood-opacity="0" result="BackgroundImageFix"/>
<feColorMatrix in="SourceAlpha" type="matrix" values="0 0 0 0 0 0 0 0 0 0 0 0 0 0 0 0 0 0 127 0" result="hardAlpha"/>
<feOffset dy="50"/>
<feGaussianBlur stdDeviation="50"/>
<feColorMatrix type="matrix" values="0 0 0 0 0 0 0 0 0 0 0 0 0 0 0 0 0 0 0.1 0"/>
<feBlend mode="normal" in2="BackgroundImageFix" result="effect1_dropShadow_1_1012"/>
<feBlend mode="normal" in="SourceGraphic" in2="effect1_dropShadow_1_1012" result="shape"/>
</filter>
<filter id="filter1_d_1_1012" x="159" y="73" width="172" height="172" filterUnits="userSpaceOnUse" color-interpolation-filters="sRGB">
<feFlood flood-opacity="0" result="BackgroundImageFix"/>
<feColorMatrix in="SourceAlpha" type="matrix" values="0 0 0 0 0 0 0 0 0 0 0 0 0 0 0 0 0 0 127 0" result="hardAlpha"/>
<feOffset dy="10"/>
<feGaussianBlur stdDeviation="25"/>
<feColorMatrix type="matrix" values="0 0 0 0 0.188235 0 0 0 0 0.160784 0 0 0 0 0.85098 0 0 0 0.3 0"/>
<feBlend mode="normal" in2="BackgroundImageFix" result="effect1_dropShadow_1_1012"/>
<feBlend mode="normal" in="SourceGraphic" in2="effect1_dropShadow_1_1012" result="shape"/>
</filter>
</defs>
</svg>
