<svg width="490" height="484" viewBox="0 0 490 484" fill="none" xmlns="http://www.w3.org/2000/svg">
<g filter="url(#filter0_d_1_1026)">
<rect x="100" y="50" width="290" height="284" rx="8" fill="white"/>
</g>
<path d="M220.675 224.736C225.763 221.104 228.307 218.216 228.307 216.072C228.307 214.76 227.739 214.104 226.603 214.104C225.963 214.104 225.491 214.328 225.187 214.776C224.899 215.224 224.739 215.92 224.707 216.864H220.699C220.795 214.8 221.419 213.248 222.571 212.208C223.723 211.168 225.179 210.648 226.939 210.648C228.779 210.648 230.163 211.112 231.091 212.04C232.035 212.968 232.507 214.176 232.507 215.664C232.507 217.312 231.875 218.928 230.611 220.512C229.347 222.08 227.835 223.408 226.075 224.496H232.771V227.808H220.675V224.736ZM234.509 224.88V221.448L242.261 210.816H246.677V221.304H248.717V224.88H246.677V228H242.525V224.88H234.509ZM242.861 215.568L238.685 221.304H242.861V215.568ZM259.514 205.2L253.058 232.512H249.098L255.554 205.2H259.514ZM270.714 213.912L264.642 228H260.394L266.538 214.392H259.338V210.864H270.714V213.912ZM209.713 257.224C209.713 258.12 209.481 258.944 209.017 259.696C208.569 260.448 207.897 261.048 207.001 261.496C206.121 261.944 205.049 262.168 203.785 262.168C201.881 262.168 200.313 261.704 199.081 260.776C197.849 259.848 197.177 258.552 197.065 256.888H201.433C201.497 257.528 201.721 258.032 202.105 258.4C202.505 258.768 203.009 258.952 203.617 258.952C204.145 258.952 204.561 258.808 204.865 258.52C205.169 258.232 205.321 257.848 205.321 257.368C205.321 256.936 205.177 256.576 204.889 256.288C204.617 256 204.273 255.768 203.857 255.592C203.441 255.4 202.865 255.176 202.129 254.92C201.057 254.552 200.177 254.2 199.489 253.864C198.817 253.512 198.233 253 197.737 252.328C197.257 251.64 197.017 250.752 197.017 249.664C197.017 248.656 197.273 247.784 197.785 247.048C198.297 246.312 199.001 245.752 199.897 245.368C200.809 244.968 201.849 244.768 203.017 244.768C204.905 244.768 206.401 245.216 207.505 246.112C208.625 247.008 209.257 248.24 209.401 249.808H204.961C204.881 249.248 204.673 248.808 204.337 248.488C204.017 248.152 203.577 247.984 203.017 247.984C202.537 247.984 202.145 248.112 201.841 248.368C201.553 248.624 201.409 249 201.409 249.496C201.409 249.896 201.537 250.24 201.793 250.528C202.065 250.8 202.401 251.024 202.801 251.2C203.201 251.376 203.777 251.6 204.529 251.872C205.617 252.24 206.505 252.608 207.193 252.976C207.881 253.328 208.473 253.848 208.969 254.536C209.465 255.224 209.713 256.12 209.713 257.224ZM225.302 248.608V262H221.174V259.576C220.79 260.36 220.214 260.984 219.446 261.448C218.694 261.912 217.814 262.144 216.806 262.144C215.27 262.144 214.046 261.632 213.134 260.608C212.238 259.584 211.79 258.176 211.79 256.384V248.608H215.87V255.88C215.87 256.792 216.102 257.504 216.566 258.016C217.046 258.512 217.686 258.76 218.486 258.76C219.318 258.76 219.974 258.496 220.454 257.968C220.934 257.44 221.174 256.688 221.174 255.712V248.608H225.302ZM236.483 248.44C237.587 248.44 238.571 248.72 239.435 249.28C240.315 249.824 241.003 250.616 241.499 251.656C242.011 252.68 242.267 253.896 242.267 255.304C242.267 256.696 242.011 257.912 241.499 258.952C241.003 259.992 240.315 260.792 239.435 261.352C238.571 261.896 237.587 262.168 236.483 262.168C235.459 262.168 234.579 261.936 233.843 261.472C233.107 261.008 232.571 260.376 232.235 259.576V268.384H228.131V248.608H232.235V251.032C232.571 250.232 233.107 249.6 233.843 249.136C234.579 248.672 235.459 248.44 236.483 248.44ZM235.163 252.04C234.299 252.04 233.587 252.336 233.027 252.928C232.483 253.504 232.211 254.296 232.211 255.304C232.211 256.296 232.483 257.088 233.027 257.68C233.587 258.272 234.299 258.568 235.163 258.568C236.043 258.568 236.747 258.28 237.275 257.704C237.819 257.128 238.091 256.328 238.091 255.304C238.091 254.28 237.819 253.48 237.275 252.904C236.747 252.328 236.043 252.04 235.163 252.04ZM252.748 248.44C253.852 248.44 254.836 248.72 255.7 249.28C256.58 249.824 257.268 250.616 257.764 251.656C258.276 252.68 258.532 253.896 258.532 255.304C258.532 256.696 258.276 257.912 257.764 258.952C257.268 259.992 256.58 260.792 255.7 261.352C254.836 261.896 253.852 262.168 252.748 262.168C251.724 262.168 250.844 261.936 250.108 261.472C249.372 261.008 248.836 260.376 248.5 259.576V268.384H244.396V248.608H248.5V251.032C248.836 250.232 249.372 249.6 250.108 249.136C250.844 248.672 251.724 248.44 252.748 248.44ZM251.428 252.04C250.564 252.04 249.852 252.336 249.292 252.928C248.748 253.504 248.476 254.296 248.476 255.304C248.476 256.296 248.748 257.088 249.292 257.68C249.852 258.272 250.564 258.568 251.428 258.568C252.308 258.568 253.012 258.28 253.54 257.704C254.084 257.128 254.356 256.328 254.356 255.304C254.356 254.28 254.084 253.48 253.54 252.904C253.012 252.328 252.308 252.04 251.428 252.04ZM266.926 248.44C268.254 248.44 269.438 248.72 270.478 249.28C271.534 249.824 272.358 250.616 272.95 251.656C273.558 252.696 273.862 253.912 273.862 255.304C273.862 256.696 273.558 257.912 272.95 258.952C272.358 259.992 271.534 260.792 270.478 261.352C269.438 261.896 268.254 262.168 266.926 262.168C265.598 262.168 264.406 261.896 263.35 261.352C262.294 260.792 261.462 259.992 260.854 258.952C260.262 257.912 259.966 256.696 259.966 255.304C259.966 253.912 260.262 252.696 260.854 251.656C261.462 250.616 262.294 249.824 263.35 249.28C264.406 248.72 265.598 248.44 266.926 248.44ZM266.926 251.992C266.142 251.992 265.478 252.28 264.934 252.856C264.406 253.416 264.142 254.232 264.142 255.304C264.142 256.376 264.406 257.192 264.934 257.752C265.478 258.312 266.142 258.592 266.926 258.592C267.71 258.592 268.366 258.312 268.894 257.752C269.422 257.192 269.686 256.376 269.686 255.304C269.686 254.232 269.422 253.416 268.894 252.856C268.366 252.28 267.71 251.992 266.926 251.992ZM280.094 251.128C280.606 250.312 281.262 249.664 282.062 249.184C282.878 248.704 283.758 248.464 284.702 248.464V252.856H283.526C282.438 252.856 281.59 253.088 280.982 253.552C280.39 254.016 280.094 254.8 280.094 255.904V262H275.99V248.608H280.094V251.128ZM294.004 258.472V262H292.156C290.588 262 289.364 261.616 288.484 260.848C287.62 260.064 287.188 258.776 287.188 256.984V252.064H285.388V248.608H287.188V245.32H291.292V248.608H293.98V252.064H291.292V257.056C291.292 257.584 291.396 257.952 291.604 258.16C291.828 258.368 292.196 258.472 292.708 258.472H294.004Z" fill="#0B1131"/>
<g filter="url(#filter1_d_1_1026)">
<path d="M281 149C281 129.118 264.882 113 245 113C225.118 113 209 129.118 209 149V185H245C264.882 185 281 168.882 281 149Z" fill="#151BB1"/>
</g>
<path fill-rule="evenodd" clip-rule="evenodd" d="M226.032 133.995C226.698 132.892 230.367 128.882 232.986 129.003C233.768 129.068 234.46 129.541 235.022 130.09C236.313 131.351 240.008 136.118 240.218 137.121C240.728 139.581 237.796 141 238.694 143.48C240.981 149.077 244.923 153.019 250.523 155.304C253.001 156.201 254.419 153.269 256.88 153.782C257.881 153.991 262.65 157.686 263.911 158.977C264.458 159.537 264.933 160.231 264.998 161.014C265.096 163.77 260.836 167.491 260.006 167.967C258.047 169.368 255.491 169.344 252.376 167.895C243.682 164.278 229.788 150.647 226.104 141.625C224.694 138.526 224.597 135.954 226.032 133.995Z" stroke="white" stroke-width="4" stroke-linecap="round" stroke-linejoin="round"/>
<path opacity="0.4" d="M228.965 131.725L232.057 136.312" stroke="white" stroke-width="4" stroke-linecap="round" stroke-linejoin="round"/>
<path opacity="0.4" d="M257.346 161.771L261.952 165.371" stroke="white" stroke-width="4" stroke-linecap="round" stroke-linejoin="round"/>
<defs>
<filter id="filter0_d_1_1026" x="0" y="0" width="490" height="484" filterUnits="userSpaceOnUse" color-interpolation-filters="sRGB">
<feFlood flood-opacity="0" result="BackgroundImageFix"/>
<feColorMatrix in="SourceAlpha" type="matrix" values="0 0 0 0 0 0 0 0 0 0 0 0 0 0 0 0 0 0 127 0" result="hardAlpha"/>
<feOffset dy="50"/>
<feGaussianBlur stdDeviation="50"/>
<feColorMatrix type="matrix" values="0 0 0 0 0 0 0 0 0 0 0 0 0 0 0 0 0 0 0.1 0"/>
<feBlend mode="normal" in2="BackgroundImageFix" result="effect1_dropShadow_1_1026"/>
<feBlend mode="normal" in="SourceGraphic" in2="effect1_dropShadow_1_1026" result="shape"/>
</filter>
<filter id="filter1_d_1_1026" x="159" y="73" width="172" height="172" filterUnits="userSpaceOnUse" color-interpolation-filters="sRGB">
<feFlood flood-opacity="0" result="BackgroundImageFix"/>
<feColorMatrix in="SourceAlpha" type="matrix" values="0 0 0 0 0 0 0 0 0 0 0 0 0 0 0 0 0 0 127 0" result="hardAlpha"/>
<feOffset dy="10"/>
<feGaussianBlur stdDeviation="25"/>
<feColorMatrix type="matrix" values="0 0 0 0 0.188235 0 0 0 0 0.160784 0 0 0 0 0.85098 0 0 0 0.3 0"/>
<feBlend mode="normal" in2="BackgroundImageFix" result="effect1_dropShadow_1_1026"/>
<feBlend mode="normal" in="SourceGraphic" in2="effect1_dropShadow_1_1026" result="shape"/>
</filter>
</defs>
</svg>
