<svg width="112" height="109" viewBox="0 0 112 109" fill="none" xmlns="http://www.w3.org/2000/svg">
<mask id="path-1-inside-1_1_807" fill="white">
<path d="M48.1582 16.5441C47.9576 15.2996 46.7842 14.4472 45.5524 14.7148C37.2578 16.5168 29.6804 20.7849 23.8305 26.9839C17.9806 33.1829 14.1584 40.9948 12.8397 49.3798C12.6439 50.625 13.5628 51.747 14.8167 51.8753C16.0707 52.0035 17.1841 51.0892 17.3881 49.8453C18.5993 42.4601 21.9902 35.5848 27.1503 30.1168C32.3104 24.6488 38.9778 20.8654 46.2805 19.2287C47.5105 18.953 48.3588 17.7885 48.1582 16.5441Z"/>
</mask>
<path d="M48.1582 16.5441C47.9576 15.2996 46.7842 14.4472 45.5524 14.7148C37.2578 16.5168 29.6804 20.7849 23.8305 26.9839C17.9806 33.1829 14.1584 40.9948 12.8397 49.3798C12.6439 50.625 13.5628 51.747 14.8167 51.8753C16.0707 52.0035 17.1841 51.0892 17.3881 49.8453C18.5993 42.4601 21.9902 35.5848 27.1503 30.1168C32.3104 24.6488 38.9778 20.8654 46.2805 19.2287C47.5105 18.953 48.3588 17.7885 48.1582 16.5441Z" stroke="#DFDEF5" stroke-width="8.78756" stroke-linejoin="round" mask="url(#path-1-inside-1_1_807)"/>
<mask id="path-2-inside-2_1_807" fill="white">
<path d="M14.9428 61.5417C13.729 61.7137 12.8785 62.8389 13.1141 64.0421C14.7153 72.2163 18.7055 79.7518 24.6031 85.6806C30.5008 91.6095 38.0151 95.6395 46.1807 97.2837C47.3826 97.5257 48.5123 96.6812 48.6907 95.4683C48.8692 94.2554 48.0287 93.134 46.8283 92.8845C39.6107 91.3846 32.9725 87.799 27.7508 82.5496C22.529 77.3002 18.9785 70.6432 17.5167 63.4177C17.2736 62.216 16.1567 61.3696 14.9428 61.5417Z"/>
</mask>
<path d="M14.9428 61.5417C13.729 61.7137 12.8785 62.8389 13.1141 64.0421C14.7153 72.2163 18.7055 79.7518 24.6031 85.6806C30.5008 91.6095 38.0151 95.6395 46.1807 97.2837C47.3826 97.5257 48.5123 96.6812 48.6907 95.4683C48.8692 94.2554 48.0287 93.134 46.8283 92.8845C39.6107 91.3846 32.9725 87.799 27.7508 82.5496C22.529 77.3002 18.9785 70.6432 17.5167 63.4177C17.2736 62.216 16.1567 61.3696 14.9428 61.5417Z" stroke="#DFDEF5" stroke-width="8.78756" stroke-linejoin="round" mask="url(#path-2-inside-2_1_807)"/>
<mask id="path-3-inside-3_1_807" fill="white">
<path d="M59.0876 95.438C59.241 96.7608 60.4395 97.7159 61.7514 97.4872C70.0474 96.0412 77.7411 92.1402 83.8225 86.2622C89.9038 80.3841 94.0641 72.8274 95.7912 64.5854C96.0644 63.282 95.1506 62.0517 93.8338 61.8535C92.5169 61.6553 91.2966 62.5645 91.0138 63.8658C89.4506 71.0607 85.7907 77.6528 80.4709 82.7947C75.1512 87.9366 68.4385 91.3703 61.1946 92.6881C59.8844 92.9265 58.9343 94.1152 59.0876 95.438Z"/>
</mask>
<path d="M59.0876 95.438C59.241 96.7608 60.4395 97.7159 61.7514 97.4872C70.0474 96.0412 77.7411 92.1402 83.8225 86.2622C89.9038 80.3841 94.0641 72.8274 95.7912 64.5854C96.0644 63.282 95.1506 62.0517 93.8338 61.8535C92.5169 61.6553 91.2966 62.5645 91.0138 63.8658C89.4506 71.0607 85.7907 77.6528 80.4709 82.7947C75.1512 87.9366 68.4385 91.3703 61.1946 92.6881C59.8844 92.9265 58.9343 94.1152 59.0876 95.438Z" stroke="#DFDEF5" stroke-width="8.78756" stroke-linejoin="round" mask="url(#path-3-inside-3_1_807)"/>
<mask id="path-4-inside-4_1_807" fill="white">
<path d="M94.0672 51.873C95.3929 51.7369 96.3643 50.5501 96.1527 49.2343C94.7257 40.3624 90.497 32.1543 84.054 25.8304C77.6109 19.5065 69.3253 15.4319 60.4283 14.1708C59.1088 13.9837 57.9403 14.9772 57.829 16.3052C57.7177 17.6332 58.7059 18.792 60.024 18.9888C67.7994 20.1496 75.0336 23.7391 80.6735 29.2746C86.3134 34.8102 90.0373 41.9761 91.3431 49.7285C91.5644 51.0427 92.7415 52.0091 94.0672 51.873Z"/>
</mask>
<path d="M94.0672 51.873C95.3929 51.7369 96.3643 50.5501 96.1527 49.2343C94.7257 40.3624 90.497 32.1543 84.054 25.8304C77.6109 19.5065 69.3253 15.4319 60.4283 14.1708C59.1088 13.9837 57.9403 14.9772 57.829 16.3052C57.7177 17.6332 58.7059 18.792 60.024 18.9888C67.7994 20.1496 75.0336 23.7391 80.6735 29.2746C86.3134 34.8102 90.0373 41.9761 91.3431 49.7285C91.5644 51.0427 92.7415 52.0091 94.0672 51.873Z" stroke="#DFDEF5" stroke-width="8.78756" stroke-linejoin="round" mask="url(#path-4-inside-4_1_807)"/>
<mask id="path-5-inside-5_1_807" fill="white">
<path d="M66.4292 37.8604C67.024 36.9004 66.7314 35.6311 65.7228 35.1231C61.3217 32.9067 56.3099 32.1426 51.4169 32.9738C45.8493 33.9195 40.8186 36.8655 37.2696 41.2583C33.7206 45.6512 31.8976 51.1887 32.143 56.8307C32.3883 62.4727 34.6852 67.831 38.6021 71.8992C42.5191 75.9673 47.7866 78.4654 53.4153 78.9242C59.0439 79.3831 64.6465 77.771 69.1705 74.3909C73.6946 71.0108 76.829 66.0952 77.9848 60.5675C79.0006 55.7094 78.4269 50.6723 76.3787 46.1905C75.9093 45.1633 74.6519 44.8228 73.6701 45.3809C72.6883 45.939 72.3559 47.1841 72.8059 48.2199C74.3726 51.8273 74.7934 55.8482 73.9816 59.7304C73.0297 64.2828 70.4485 68.331 66.7227 71.1146C62.9969 73.8983 58.383 75.2259 53.7475 74.848C49.1121 74.4702 44.7741 72.4129 41.5483 69.0625C38.3225 65.7122 36.4309 61.2994 36.2289 56.653C36.0268 52.0066 37.5281 47.4462 40.4509 43.8285C43.3736 40.2108 47.5166 37.7846 52.1018 37.0058C56.0119 36.3416 60.0141 36.9143 63.5595 38.6166C64.5776 39.1054 65.8343 38.8204 66.4292 37.8604Z"/>
</mask>
<path d="M66.4292 37.8604C67.024 36.9004 66.7314 35.6311 65.7228 35.1231C61.3217 32.9067 56.3099 32.1426 51.4169 32.9738C45.8493 33.9195 40.8186 36.8655 37.2696 41.2583C33.7206 45.6512 31.8976 51.1887 32.143 56.8307C32.3883 62.4727 34.6852 67.831 38.6021 71.8992C42.5191 75.9673 47.7866 78.4654 53.4153 78.9242C59.0439 79.3831 64.6465 77.771 69.1705 74.3909C73.6946 71.0108 76.829 66.0952 77.9848 60.5675C79.0006 55.7094 78.4269 50.6723 76.3787 46.1905C75.9093 45.1633 74.6519 44.8228 73.6701 45.3809C72.6883 45.939 72.3559 47.1841 72.8059 48.2199C74.3726 51.8273 74.7934 55.8482 73.9816 59.7304C73.0297 64.2828 70.4485 68.331 66.7227 71.1146C62.9969 73.8983 58.383 75.2259 53.7475 74.848C49.1121 74.4702 44.7741 72.4129 41.5483 69.0625C38.3225 65.7122 36.4309 61.2994 36.2289 56.653C36.0268 52.0066 37.5281 47.4462 40.4509 43.8285C43.3736 40.2108 47.5166 37.7846 52.1018 37.0058C56.0119 36.3416 60.0141 36.9143 63.5595 38.6166C64.5776 39.1054 65.8343 38.8204 66.4292 37.8604Z" stroke="#3029D9" stroke-width="6.59067" mask="url(#path-5-inside-5_1_807)"/>
<path d="M66.7804 54.9957C66.7804 60.8803 62.01 65.6507 56.1255 65.6507C50.2409 65.6507 45.4706 60.8803 45.4706 54.9957C45.4706 49.1112 50.2409 44.3408 56.1255 44.3408C62.01 44.3408 66.7804 49.1112 66.7804 54.9957ZM49.0091 54.9957C49.0091 58.926 52.1952 62.1121 56.1255 62.1121C60.0557 62.1121 63.2419 58.926 63.2419 54.9957C63.2419 51.0655 60.0557 47.8794 56.1255 47.8794C52.1952 47.8794 49.0091 51.0655 49.0091 54.9957Z" fill="#3029D9"/>
<path d="M54.8574 56.5927L88.36 23.0901M108.242 3.20829L99.7838 11.6663M99.7838 11.6663L97.3507 2.58562C97.2733 2.29686 96.9379 2.16721 96.6909 2.33559C90.7584 6.37955 81.4905 15.6586 88.36 23.0901M99.7838 11.6663L88.36 23.0901M99.7838 11.6663L109.447 14.9912C109.723 15.0864 109.826 15.4285 109.655 15.6659C99.615 29.6088 91.2923 26.4569 88.36 23.0901" stroke="#3029D9" stroke-width="3.29534" stroke-linecap="round"/>
<path d="M91.8535 56.5928H105.694" stroke="#DFDEF5" stroke-width="3.29534" stroke-linecap="round"/>
<path d="M53.4043 17.4873L53.4043 3.64689" stroke="#DFDEF5" stroke-width="3.29534" stroke-linecap="round"/>
<path d="M53.4043 106.901L53.4043 93.061" stroke="#DFDEF5" stroke-width="3.29534" stroke-linecap="round"/>
<path d="M2 56.5928H15.8404" stroke="#DFDEF5" stroke-width="3.29534" stroke-linecap="round"/>
</svg>
